<svg width="104" height="62" viewBox="0 0 104 62" fill="none" xmlns="http://www.w3.org/2000/svg">
<path d="M86.4151 61.5542C86.3975 61.5542 86.3887 61.5483 86.3887 61.5366C86.3887 61.4779 86.8027 61.0139 87.6309 60.1446C88.6763 59.0522 89.199 58.4502 89.199 58.3386V58.3298C89.1344 58.3298 88.597 58.829 87.5868 59.8275C87.3578 60.0507 87.2374 60.1623 87.2256 60.1623C87.2197 60.1623 87.2139 60.1476 87.208 60.1182C87.208 60.0771 87.2109 60.0213 87.2168 59.9508C87.2227 59.8803 87.2755 59.7687 87.3754 59.616C87.4693 59.4633 87.5868 59.3077 87.7278 59.1491C87.9803 58.8672 88.1741 58.647 88.3092 58.4884C88.4384 58.3298 88.5206 58.2182 88.5559 58.1536C88.5853 58.0949 88.5999 58.0538 88.5999 58.0303C88.5999 57.995 88.5794 57.9745 88.5383 57.9686C88.4619 57.9686 88.3856 58.0038 88.3092 58.0743C88.2505 58.1213 88.2152 58.1448 88.2035 58.1448L88.1947 58.136C88.1947 58.1242 88.2387 58.0684 88.3268 57.9686C88.4737 57.7924 88.5471 57.672 88.5471 57.6074C88.5471 57.5428 89.1873 56.6383 90.4676 54.894C90.7026 54.5709 90.82 54.383 90.82 54.3301C90.82 54.3184 90.8141 54.3125 90.8024 54.3125C90.7378 54.3184 90.5469 54.5152 90.2298 54.9028C89.895 55.3315 89.5015 55.7632 89.0492 56.1978L88.3885 56.8321C88.506 56.6442 88.6234 56.4562 88.7409 56.2683C88.8584 56.0862 89.1344 55.6986 89.569 55.1054C89.9978 54.5122 90.4882 53.8515 91.0403 53.1232C93.09 50.4274 94.6787 48.0987 95.8064 46.137C96.9399 44.1754 97.818 42.2225 98.4405 40.2785C98.7048 39.468 98.9162 38.6516 99.0748 37.8293C99.2393 37.0071 99.3244 36.3258 99.3303 35.7855C99.3244 35.3097 99.2569 34.7929 99.1277 34.2349C98.9985 33.677 98.8458 33.2277 98.6696 32.887C98.464 32.4583 98.2056 32.1969 97.8943 32.103C97.583 32.0031 97.169 31.9532 96.6521 31.9532C96.3937 31.9532 96.103 31.962 95.7799 31.9796C95.2866 32.0031 94.9048 32.0149 94.6347 32.0149C94.1824 32.0149 93.8477 31.9502 93.6303 31.821C92.9725 31.4569 92.6436 30.9283 92.6436 30.2353C92.6436 29.9651 92.6936 29.6685 92.7934 29.3455C92.9872 28.6055 94.1266 26.8846 96.2116 24.1829C98.3201 21.4284 99.7033 19.4843 100.361 18.3508C100.678 17.8222 100.837 17.5021 100.837 17.3905C100.837 17.3553 100.816 17.3377 100.775 17.3377C100.658 17.3377 100.226 17.6167 99.4801 18.1746C97.9237 19.3316 96.7432 20.289 95.9385 21.0466C95.6684 21.2992 95.4892 21.4254 95.4011 21.4254C95.3835 21.4254 95.3747 21.4196 95.3747 21.4078C95.3747 21.3667 95.4364 21.2727 95.5597 21.1259C95.5773 21.1024 95.5861 21.0877 95.5861 21.0819C95.5685 21.0819 95.454 21.1788 95.2425 21.3726C95.0017 21.584 94.8549 21.6897 94.8021 21.6897C94.7844 21.6839 94.7756 21.6721 94.7756 21.6545C94.7756 21.5899 94.9019 21.4343 95.1544 21.1876C95.4129 20.935 95.5421 20.7383 95.5421 20.5973C95.5421 20.5621 95.5274 20.5445 95.498 20.5445C95.451 20.5445 95.3659 20.5973 95.2425 20.703C95.1251 20.8088 95.0546 20.8616 95.0311 20.8616C95.0252 20.8616 95.0223 20.8587 95.0223 20.8528C95.0223 20.7999 95.1104 20.6678 95.2866 20.4564C95.4393 20.2743 95.6184 20.0863 95.824 19.8925C96.2762 19.4638 96.5024 19.2171 96.5024 19.1525C96.5024 19.1466 96.4994 19.1437 96.4935 19.1437C96.47 19.1437 96.2821 19.2935 95.9297 19.593C95.8475 19.6635 95.7976 19.7105 95.7799 19.734C95.3218 20.1627 95.0752 20.3771 95.0399 20.3771V20.3683C95.0399 20.333 95.2337 20.101 95.6214 19.6723C96.7432 18.4213 97.304 17.6842 97.304 17.461C97.304 17.3847 97.398 17.2466 97.586 17.047C98.2555 16.3128 98.6754 15.8341 98.8458 15.611C98.9162 15.517 98.9515 15.4494 98.9515 15.4083C98.9515 15.3672 99.0807 15.2615 99.3391 15.0912C100.003 14.6624 100.567 14.3658 101.031 14.2014C101.406 14.0722 101.756 14.0076 102.079 14.0076C102.355 14.0076 102.61 14.0575 102.845 14.1573C103.615 14.498 104 15.1675 104 16.166C104 16.5184 103.941 16.906 103.823 17.3289C103.606 17.9867 103.204 18.8383 102.616 19.8837C102.029 20.9233 101.462 21.7808 100.916 22.4562C100.294 23.2315 99.2128 24.644 97.6741 26.6937C96.5816 28.1503 96.0354 28.9461 96.0354 29.0812C96.0354 29.1458 96.4084 29.184 97.1543 29.1957C97.5948 29.1957 97.9413 29.2192 98.1938 29.2662C98.4464 29.3132 98.7107 29.4013 98.9867 29.5305C100.989 30.4878 101.991 32.6198 101.991 35.9264C101.991 36.6547 101.95 37.3066 101.868 37.8822C101.785 38.5048 101.633 39.1978 101.409 39.9613C101.128 41.0009 100.831 41.9142 100.52 42.7012C100.091 43.7936 99.4419 45.1944 98.5727 46.9035C98.3319 47.3733 97.9031 48.1045 97.2864 49.0971C96.8048 49.8841 96.5435 50.307 96.5024 50.3657C95.7799 51.5462 95.0311 52.6034 94.2558 53.5373C93.6627 54.242 93.1341 54.9175 92.6701 55.5635C92.3764 55.9512 91.9888 56.4151 91.5072 56.9555C91.0197 57.5017 90.5733 57.9774 90.1681 58.3827C89.757 58.7938 89.5162 58.9994 89.4457 58.9994H89.4369C89.3958 58.9994 89.2636 59.0992 89.0404 59.2989C88.8172 59.4986 88.5471 59.757 88.2299 60.0742C87.9069 60.3972 87.625 60.6673 87.3842 60.8847C87.1434 61.102 87.0083 61.2106 86.9789 61.2106C86.9437 61.2106 86.8938 61.2312 86.8292 61.2723C86.7587 61.3134 86.6911 61.3633 86.6265 61.4221C86.5619 61.4808 86.5149 61.516 86.4856 61.5278C86.4503 61.5454 86.4268 61.5542 86.4151 61.5542ZM99.4977 37.4065C99.5153 37.4065 99.5476 37.2861 99.5946 37.0453C99.6592 36.7222 99.6915 36.3787 99.6915 36.0145C99.6915 35.8736 99.6856 35.8031 99.6739 35.8031C99.6563 35.8031 99.624 35.944 99.577 36.226C99.5124 36.5901 99.4801 36.9278 99.4801 37.2391C99.4801 37.3507 99.4859 37.4065 99.4977 37.4065ZM99.6387 35.3978C99.6739 35.3978 99.6915 35.3127 99.6915 35.1423C99.6915 35.0895 99.6856 35.0396 99.6739 34.9926C99.6621 34.9515 99.6504 34.9309 99.6387 34.9309C99.6269 34.9309 99.6181 35.0014 99.6122 35.1423C99.6122 35.3127 99.621 35.3978 99.6387 35.3978ZM98.6784 32.1382C98.6843 32.1382 98.6872 32.1353 98.6872 32.1294C98.6872 32.1059 98.5932 32.009 98.4053 31.8387C98.1703 31.6331 98.0059 31.5303 97.9119 31.5303C97.8943 31.5303 97.8855 31.5362 97.8855 31.5479C97.8855 31.589 97.9912 31.686 98.2026 31.8387C98.4904 32.0383 98.649 32.1382 98.6784 32.1382ZM95.1456 31.6272C95.3277 31.6272 95.4187 31.6155 95.4187 31.592C95.4187 31.5626 95.3277 31.5479 95.1456 31.5479C94.9636 31.5479 94.8725 31.5626 94.8725 31.592C94.8725 31.6155 94.9636 31.6272 95.1456 31.6272ZM96.7931 31.4863C97.1866 31.4863 97.3833 31.4775 97.3833 31.4598C97.3833 31.4305 97.1866 31.4158 96.7931 31.4158C96.3996 31.4158 96.2028 31.4305 96.2028 31.4598C96.2028 31.4775 96.3996 31.4863 96.7931 31.4863ZM88.4414 60.1446C88.4296 60.1446 88.4237 60.1358 88.4237 60.1182C88.4237 60.036 88.597 59.8275 88.9435 59.4927C89.1608 59.2871 89.293 59.1844 89.34 59.1844C89.3458 59.1844 89.3488 59.1902 89.3488 59.202C89.3488 59.249 89.2754 59.3606 89.1285 59.5368C88.9171 59.7893 88.7291 59.9714 88.5647 60.083C88.506 60.1241 88.4649 60.1446 88.4414 60.1446Z" fill="#FFE500"/>
<path d="M82.8474 28.861C82.5185 28.861 82.2043 28.767 81.9047 28.5791C81.4819 28.3089 81.2058 27.933 81.0766 27.4514C80.9533 26.9698 80.8916 26.4559 80.8916 25.9097C80.8916 24.7527 81.15 22.9056 81.6669 20.3683C82.2307 17.5785 82.586 16.1837 82.7329 16.1837H82.7505C82.7798 16.1837 82.8121 16.166 82.8474 16.1308C82.8826 16.0897 82.912 16.0398 82.9355 15.981C82.959 15.9223 82.9795 15.8929 82.9972 15.8929C83.0206 15.8929 83.0353 16.0016 83.0412 16.2189C83.0471 16.4303 83.0588 16.5507 83.0764 16.5801C83.0941 16.6095 83.1117 16.6241 83.1293 16.6241C83.1528 16.6241 83.188 16.6036 83.235 16.5625C83.282 16.5214 83.3172 16.5008 83.3407 16.5008C83.3701 16.5008 83.3848 16.539 83.3848 16.6153C83.3848 16.6799 83.376 16.7798 83.3584 16.9149C83.3407 17.0441 83.3202 17.1762 83.2967 17.3113C83.2791 17.4405 83.2614 17.5404 83.2438 17.6108L83.235 17.6901C83.235 17.743 83.2497 17.7724 83.2791 17.7782C83.3495 17.7782 83.423 17.5404 83.4993 17.0646C83.558 16.6418 83.6197 16.4303 83.6843 16.4303C83.7078 16.4303 83.7225 16.4803 83.7284 16.5801C83.7284 16.6799 83.7137 16.8033 83.6843 16.9501C83.6432 17.185 83.6226 17.4317 83.6226 17.6901C83.6226 18.3127 83.6873 18.7209 83.8165 18.9147C83.9163 19.0439 83.9868 19.3346 84.0279 19.7869C84.0808 20.2567 84.1424 20.4917 84.2129 20.4917C84.254 20.4917 84.2746 20.5093 84.2746 20.5445C84.2746 20.5739 84.2746 20.5974 84.2746 20.615C84.2746 20.7677 84.1865 21.3374 84.0103 22.3241C83.84 23.3108 83.7548 23.9804 83.7548 24.3327C83.7548 24.5324 83.7871 24.6323 83.8517 24.6323C83.9457 24.6323 84.1777 24.3768 84.5477 23.8658C84.9236 23.349 85.7957 22.0627 87.1642 20.0071C88.797 17.5521 89.8629 16.0045 90.3622 15.3643C91.1198 14.4775 91.8128 14.0341 92.4413 14.0341C92.6762 14.0341 92.8612 14.1251 92.9963 14.3072C93.1725 14.5832 93.3017 14.8857 93.3839 15.2146C93.472 15.5435 93.5161 15.8225 93.5161 16.0515C93.5161 16.4156 93.3223 17.6226 92.9346 19.6723C92.6527 21.1348 92.409 22.2742 92.2034 23.0906C92.1212 23.396 92.0507 23.8541 91.992 24.4649C91.9333 25.0698 91.8686 25.4898 91.7982 25.7247C91.7159 26.0125 91.6748 26.312 91.6748 26.6233C91.6748 26.9052 91.6455 27.0462 91.5867 27.0462C91.5809 27.0462 91.572 27.0432 91.5603 27.0374C91.5544 27.0315 91.5456 27.0286 91.5339 27.0286C91.4928 27.0286 91.4546 27.0785 91.4193 27.1783C91.39 27.2723 91.3724 27.378 91.3665 27.4955C91.3606 27.6071 91.3577 27.6805 91.3577 27.7157C91.3577 27.8743 91.3665 28.0387 91.3841 28.2091C91.3959 28.3089 91.4017 28.397 91.4017 28.4734C91.4017 28.6554 91.3665 28.7465 91.296 28.7465C91.2314 28.7465 91.1727 28.6055 91.1198 28.3236L90.8203 26.6497C90.8027 27.6071 90.785 28.1063 90.7674 28.1474C90.7498 28.2238 90.7263 28.2619 90.6969 28.2619C90.6265 28.2619 90.553 28.1445 90.4767 27.9095C90.4238 27.7627 90.3827 27.6041 90.3534 27.4338C90.3064 27.0814 90.2447 26.9052 90.1683 26.9052L90.1155 26.914C89.9628 26.914 89.8747 26.3384 89.8512 25.1873C89.8336 24.5001 89.8013 24.1565 89.7543 24.1565C89.7132 24.1565 89.6603 24.4032 89.5957 24.8966C89.5252 25.5485 89.4371 25.8745 89.3314 25.8745C89.2609 25.8745 89.2257 25.713 89.2257 25.3899C89.2257 24.9259 89.2786 24.2417 89.3843 23.3372C89.443 22.8145 89.5105 22.3858 89.5869 22.051C89.6926 21.5929 89.7455 21.311 89.7455 21.2053L89.7367 21.17C89.6897 21.17 89.537 21.3785 89.2786 21.7955C88.7089 22.6882 87.9953 23.7249 87.1378 24.9054C86.2803 26.08 85.6225 26.9228 85.1644 27.4338C84.5712 28.0564 84.116 28.4528 83.7988 28.6231C83.4699 28.7817 83.1528 28.861 82.8474 28.861ZM87.7192 23.302C87.7486 23.302 87.8279 23.2227 87.9571 23.0641C88.0393 22.9584 88.1215 22.8351 88.2038 22.6941C88.2919 22.5473 88.3565 22.4298 88.3976 22.3417C88.4446 22.2478 88.4681 22.1861 88.4681 22.1567C88.4681 22.145 88.4622 22.1391 88.4504 22.1391C88.4211 22.1391 88.2713 22.33 88.0011 22.7117C87.8014 23.0113 87.7016 23.2022 87.7016 23.2844C87.7016 23.2961 87.7075 23.302 87.7192 23.302ZM88.5562 22.0158C88.5855 22.0158 88.6589 21.9423 88.7764 21.7955C88.8527 21.7074 88.8909 21.6546 88.8909 21.6369H88.8821C88.8704 21.6369 88.8204 21.6722 88.7323 21.7427C88.5796 21.866 88.5033 21.9482 88.5033 21.9893C88.5033 22.007 88.5209 22.0158 88.5562 22.0158ZM89.5517 20.7383C89.5693 20.7383 89.6251 20.6884 89.719 20.5886C89.8306 20.4887 89.8864 20.4036 89.8864 20.3331C89.8864 20.3037 89.8747 20.289 89.8512 20.289C89.7866 20.289 89.719 20.3654 89.6486 20.5181C89.5781 20.6356 89.5429 20.706 89.5429 20.7295C89.5429 20.7354 89.5458 20.7383 89.5517 20.7383Z" fill="#FFE500"/>
<path d="M75.8789 32.1823C75.3444 32.1823 74.8804 31.9532 74.4869 31.4951C74.1991 31.1662 74.0112 30.852 73.9231 30.5525C73.8585 30.3469 73.8262 29.9475 73.8262 29.3543C73.8262 28.5145 73.8585 27.842 73.9231 27.3369C74.0875 26.0271 74.4722 24.3915 75.0772 22.4298C75.4178 21.3139 75.7408 20.3654 76.0462 19.5842C76.3517 18.7972 76.5602 18.4037 76.6717 18.4037L76.7158 18.4125C76.7804 18.4125 76.8479 18.3567 76.9184 18.2451C76.9595 18.1688 76.9889 18.1306 77.0065 18.1306C77.03 18.1306 77.0418 18.16 77.0418 18.2187L77.0153 18.527C77.0153 18.6739 77.0506 18.7473 77.121 18.7473L77.2003 18.7385C77.2649 18.7385 77.2972 18.7796 77.2972 18.8618C77.2972 18.944 77.2561 19.0938 77.1739 19.3111C77.121 19.4462 77.0946 19.5314 77.0946 19.5666C77.0946 19.5784 77.0976 19.5842 77.1034 19.5842C77.121 19.5842 77.1651 19.5314 77.2356 19.4256C77.3648 19.2729 77.4294 19.1408 77.4294 19.0292C77.4294 18.9117 77.4764 18.8266 77.5703 18.7737C77.5938 18.7561 77.6115 18.7473 77.6232 18.7473C77.6408 18.7473 77.6496 18.7649 77.6496 18.8001C77.6496 18.8413 77.6379 18.9029 77.6144 18.9852C77.5322 19.2318 77.4911 19.455 77.4911 19.6547C77.4911 19.8896 77.5557 20.1451 77.6849 20.4212C77.9022 20.8793 78.0108 21.1964 78.0108 21.3726V21.6545C78.0108 22.0011 77.9051 22.4738 77.6937 23.0729C77.447 23.7953 77.3061 24.2945 77.2708 24.5706C77.2708 24.7585 77.2326 24.9054 77.1563 25.0111C77.0506 25.199 76.8891 25.9126 76.6717 27.1519C76.5836 27.6335 76.5396 27.9536 76.5396 28.1121C76.5396 28.3471 76.5954 28.4645 76.707 28.4645C77.0241 28.4645 77.7965 27.5336 79.024 25.6718L79.4557 24.9935C79.6788 24.6352 79.8932 24.3415 80.0988 24.1125C80.3278 23.8599 80.5216 23.5839 80.6802 23.2844C80.8447 22.9848 81.0913 22.6236 81.4202 22.2007C81.8255 21.6839 82.0457 21.4255 82.081 21.4255V21.4343C82.081 21.4578 82.0545 21.5253 82.0017 21.6369C81.9899 21.6663 81.9841 21.6898 81.9841 21.7074C81.9841 21.7191 81.987 21.725 81.9929 21.725C82.034 21.725 82.1779 21.5899 82.4246 21.3198C82.7241 20.9909 82.9032 20.8264 82.962 20.8264C82.9796 20.8264 82.9884 20.8352 82.9884 20.8528C82.9884 20.9351 82.868 21.1788 82.6272 21.5841C82.3923 21.9893 82.2748 22.2272 82.2748 22.2977C82.2748 22.3094 82.2807 22.3153 82.2924 22.3153C82.3335 22.3153 82.4657 22.1919 82.6889 21.9453C82.8885 21.7279 83.0236 21.6193 83.0941 21.6193C83.1293 21.6193 83.147 21.6487 83.147 21.7074C83.147 21.8014 83.1 21.9717 83.006 22.2184C82.959 22.33 82.9355 22.421 82.9355 22.4915C82.9355 22.5737 82.9649 22.6324 83.0236 22.6677C83.0882 22.697 83.1205 22.7587 83.1205 22.8527C83.1147 23.0171 83.0295 23.3078 82.8651 23.7248C82.8122 23.8541 82.7681 23.9363 82.7329 23.9715C82.6683 24.0479 82.636 24.133 82.636 24.227C82.636 24.2387 82.6419 24.2446 82.6536 24.2446C82.7123 24.2446 82.8533 24.1154 83.0765 23.857C83.2703 23.6279 83.4025 23.5134 83.4729 23.5134C83.5082 23.5193 83.5258 23.5486 83.5258 23.6015C83.5258 23.7307 83.423 23.995 83.2174 24.3944C83.0119 24.7879 82.6154 25.4016 82.0281 26.2356C81.4467 27.0696 80.8388 27.9007 80.2045 28.7288C79.5761 29.5569 79.0856 30.156 78.7332 30.526C77.6584 31.6302 76.707 32.1823 75.8789 32.1823ZM76.5748 31.7506C76.5983 31.7506 76.6424 31.7388 76.707 31.7154C76.7716 31.686 76.8156 31.6596 76.8391 31.6361C76.8626 31.6126 76.8744 31.595 76.8744 31.5832C76.8744 31.5538 76.8538 31.5392 76.8127 31.5392C76.7657 31.5392 76.707 31.5744 76.6365 31.6449C76.5836 31.6919 76.5572 31.7242 76.5572 31.7418C76.5572 31.7477 76.5631 31.7506 76.5748 31.7506ZM75.1212 31.5303C75.1388 31.5303 75.1476 31.5157 75.1476 31.4863C75.1476 31.4569 75.0537 31.363 74.8657 31.2044L74.575 30.9577C74.898 31.3395 75.0801 31.5303 75.1212 31.5303ZM77.1299 31.5215C77.2297 31.5215 77.4852 31.3307 77.8963 30.9489C78.1019 30.7492 78.2047 30.6406 78.2047 30.6229C78.1929 30.6229 78.1459 30.6552 78.0637 30.7198C77.7877 30.9489 77.5322 31.1427 77.2972 31.3013C77.168 31.3894 77.1034 31.4569 77.1034 31.5039C77.1034 31.5157 77.1122 31.5215 77.1299 31.5215ZM74.5662 30.8608C74.5897 30.8608 74.6014 30.8432 74.6014 30.8079C74.6014 30.7257 74.5545 30.5994 74.4605 30.4291C74.3783 30.2764 74.3195 30.2001 74.2843 30.2001C74.2725 30.2001 74.2667 30.2118 74.2667 30.2353C74.2667 30.3175 74.2872 30.4115 74.3283 30.5172C74.3694 30.6171 74.4135 30.6993 74.4605 30.7639C74.5075 30.8285 74.5427 30.8608 74.5662 30.8608ZM79.1649 16.3686C79.0122 16.3686 78.9124 16.3217 78.8654 16.2277C78.8125 16.1102 78.7244 16.0515 78.6011 16.0515C78.5482 16.0515 78.4631 16.0221 78.3456 15.9634C78.2281 15.9047 78.1107 15.8283 77.9932 15.7343C77.6996 15.5229 77.4911 15.4172 77.3677 15.4172C77.2444 15.4172 77.1563 15.3643 77.1034 15.2586V15.2322C77.1034 15.1088 77.2297 14.7623 77.4822 14.1926C77.7583 13.5759 77.9345 13.2676 78.0108 13.2676C78.0402 13.2676 78.1459 13.3146 78.328 13.4085C78.5101 13.4966 78.7186 13.6053 78.9535 13.7345C79.1884 13.8637 79.4057 13.99 79.6054 14.1133C79.811 14.2308 79.9578 14.3218 80.0459 14.3864C80.134 14.451 80.2221 14.5186 80.3102 14.5891L79.6054 16.1748C79.5232 16.304 79.3764 16.3686 79.1649 16.3686Z" fill="#FFE500"/>
<path d="M70.082 33.5566C69.7179 33.5566 69.386 33.4626 69.0865 33.2747C68.7811 33.0574 68.5462 32.8224 68.3817 32.5699C68.1938 32.2821 68.0557 31.8651 67.9676 31.3189C67.8795 30.7727 67.8355 30.2206 67.8355 29.6627L67.8531 28.6671C67.8531 28.303 67.8414 28.1151 67.8179 28.1033C67.7768 28.1033 67.674 28.2413 67.5095 28.5174C67.3157 28.8287 67.0162 29.1957 66.6109 29.6186C66.2115 30.0415 65.868 30.3469 65.5802 30.5348C65.1162 30.8109 64.6786 30.9489 64.2675 30.9489C63.4394 30.9489 62.8315 30.4996 62.4439 29.601C62.297 29.2016 62.2236 28.7171 62.2236 28.1474C62.2236 27.5131 62.3147 26.776 62.4967 25.9361C62.8433 24.3386 63.4012 22.7146 64.1706 21.0643C65.1397 18.9793 66.2233 17.4405 67.4214 16.4479C68.0205 15.9546 68.6724 15.7079 69.3772 15.7079C69.9058 15.7079 70.4373 15.8577 70.9718 16.1572C71.4651 16.4332 71.7118 16.63 71.7118 16.7474C71.7118 16.7768 71.6942 16.7915 71.659 16.7915C71.6061 16.7915 71.5239 16.7533 71.4123 16.677L71.3682 16.6505L71.3594 16.6593C71.3594 16.677 71.4475 16.7827 71.6237 16.9765C71.8704 17.2467 71.9937 17.4141 71.9937 17.4787C71.9937 17.4963 71.9849 17.5051 71.9673 17.5051C71.9086 17.5051 71.7529 17.3788 71.5004 17.1263C71.2067 16.8326 71.01 16.6858 70.9101 16.6858C70.8044 16.6858 70.7515 16.7122 70.7515 16.7651C70.7515 16.8297 70.8426 16.9383 71.0246 17.091L71.3154 17.3465L70.9366 17.091C70.4197 16.768 69.944 16.6065 69.5094 16.6065C69.386 16.6065 69.2744 16.627 69.1746 16.6682C69.0806 16.7093 69.0336 16.7386 69.0336 16.7563C69.0336 16.7856 69.1716 16.8032 69.4477 16.8091C70.0761 16.8326 70.5519 17.0323 70.8749 17.4082C70.9277 17.4669 70.9542 17.5051 70.9542 17.5227L70.9454 17.5315C70.9219 17.5315 70.8308 17.4728 70.6723 17.3553C70.3199 17.1028 69.9792 16.9765 69.6503 16.9765C69.4976 16.9765 69.339 17.0059 69.1746 17.0646C69.016 17.1175 68.8516 17.2232 68.6812 17.3818C68.5109 17.5345 68.3788 17.6872 68.2848 17.8399C68.1908 17.9867 68.1438 18.1042 68.1438 18.1923L68.1526 18.2627C68.1703 18.3097 68.1791 18.3479 68.1791 18.3773C68.1791 18.436 68.1585 18.4654 68.1174 18.4654C68.0411 18.4654 67.9207 18.7473 67.7562 19.3111C67.6916 19.5343 67.6446 19.7398 67.6152 19.9278C67.5918 20.1157 67.3715 20.6267 66.9545 21.4607C66.4847 22.4415 66.0559 23.5134 65.6683 24.6763C65.498 25.1814 65.4128 25.5103 65.4128 25.663C65.4128 25.9038 65.4598 26.0242 65.5537 26.0242C65.7769 26.0242 66.1205 25.5543 66.5845 24.6146C66.8664 24.0625 67.3451 22.9848 68.0205 21.3814C68.3024 20.7177 68.5638 20.1392 68.8046 19.6459C69.0512 19.1467 69.2186 18.8471 69.3067 18.7473C69.4771 18.5593 69.7325 18.4654 70.0732 18.4654H70.223C70.7574 18.4654 71.0981 18.6768 71.2449 19.0997C71.3212 19.3229 71.3594 19.6576 71.3594 20.104C71.3594 20.5269 71.3242 21.0525 71.2537 21.6809C70.8367 25.6043 70.6282 28.1297 70.6282 29.2574C70.6282 29.6333 70.6517 29.8535 70.6987 29.9181H70.7163C70.8103 29.9181 71.0012 29.7449 71.2889 29.3984C71.5944 29.0342 71.9174 28.5967 72.258 28.0857C72.5987 27.5747 72.863 27.1166 73.0509 26.7114C73.2212 26.3413 73.4474 25.942 73.7293 25.5132C74.0112 25.0845 74.3078 24.5206 74.6191 23.8217C74.9245 23.1581 75.1007 22.8262 75.1476 22.8262L75.1565 22.8527C75.1565 22.929 75.1036 23.067 74.9979 23.2667C74.8687 23.5369 74.8041 23.6984 74.8041 23.7513C74.8041 23.7689 74.8099 23.7777 74.8217 23.7777C74.8687 23.7777 75.0008 23.5574 75.2181 23.117C75.3238 22.8996 75.4178 22.6794 75.5 22.4562C75.7291 21.8924 75.9141 21.5106 76.0551 21.3109C76.1138 21.2287 76.152 21.1876 76.1696 21.1876C76.1872 21.1876 76.196 21.2023 76.196 21.2316C76.196 21.3374 76.0463 21.8337 75.7467 22.7205C75.4531 23.5897 75.2592 24.1271 75.1653 24.3327C75.1183 24.4091 75.0948 24.4737 75.0948 24.5265C75.0948 24.5441 75.1036 24.553 75.1212 24.553C75.1682 24.553 75.365 24.1829 75.7115 23.4429C75.9993 22.8204 76.1813 22.5091 76.2577 22.5091C76.3047 22.5091 76.3282 22.5766 76.3282 22.7117C76.3282 22.9349 76.2577 23.2403 76.1167 23.6279C75.9875 23.9862 75.9229 24.2152 75.9229 24.3151C75.9229 24.3621 75.9405 24.3856 75.9758 24.3856C75.9875 24.3856 76.0051 24.3826 76.0286 24.3768C76.0521 24.365 76.0727 24.3591 76.0903 24.3591C76.1314 24.3591 76.152 24.3885 76.152 24.4472C76.152 24.5706 76.0521 24.9376 75.8524 25.5485C75.5412 26.4882 75.2974 27.1254 75.1212 27.4602C75.0449 27.6129 75.0067 27.7186 75.0067 27.7773C75.0067 27.795 75.0126 27.8038 75.0243 27.8038L75.0507 27.795C75.0919 27.7656 75.1594 27.6746 75.2534 27.5219C75.3532 27.3692 75.456 27.19 75.5617 26.9845C75.6674 26.7789 75.779 26.5733 75.8965 26.3678C76.0198 26.1563 76.1226 25.9919 76.2048 25.8744C76.2871 25.7511 76.3722 25.6278 76.4603 25.5044L76.381 25.8832C76.3282 26.1299 76.1755 26.5234 75.9229 27.0638C75.6704 27.6041 75.3826 28.1709 75.0596 28.764C74.7365 29.3514 74.4399 29.8447 74.1698 30.2441C73.0773 31.8357 72.1376 32.8313 71.3506 33.2306C70.8925 33.4479 70.4696 33.5566 70.082 33.5566Z" fill="#FFE500"/>
<path d="M57.2551 30.2618C55.7985 30.2383 54.9058 30.2089 54.5769 30.1737C54.3713 30.1384 54.2686 30.068 54.2686 29.9622C54.2686 29.927 54.2744 29.8859 54.2862 29.8389C54.3155 29.6686 54.3596 28.9227 54.4183 27.6012C54.4653 26.4089 54.5563 25.0963 54.6914 23.6632C54.8324 22.3124 54.9087 20.9175 54.9205 19.4785C54.9205 17.8223 54.9587 16.9942 55.035 16.9942H55.0438C55.0673 17.0059 55.1172 17.0676 55.1936 17.1792C55.2876 17.3201 55.3639 17.3906 55.4226 17.3906C55.4579 17.3906 55.4902 17.3613 55.5196 17.3025C55.5489 17.2379 55.5753 17.2056 55.5988 17.2056C55.6223 17.2115 55.6458 17.2526 55.6693 17.329C55.8396 17.8575 55.9365 18.1277 55.96 18.1395H55.9689C55.9865 18.1395 55.9953 18.0983 55.9953 18.0161C55.9953 17.8634 55.96 17.6402 55.8896 17.3466C55.8543 17.2291 55.8367 17.1293 55.8367 17.047C55.8367 17.0118 55.8426 16.9942 55.8543 16.9942C55.8837 16.9942 55.9248 17.0588 55.9777 17.188C56.0305 17.3113 56.0746 17.4494 56.1098 17.6021C56.2743 18.1835 56.4093 18.4742 56.5151 18.4742C56.5268 18.4742 56.5415 18.4684 56.5591 18.4566C56.5767 18.439 56.6267 18.348 56.7089 18.1835C56.797 18.0132 56.8998 17.8106 57.0172 17.5756C57.5928 16.3834 58.2477 15.7872 58.9818 15.7872C59.3518 15.7872 59.7395 15.9341 60.1447 16.2277C60.3914 16.3863 60.6028 16.586 60.779 16.8268C60.9611 17.0676 61.199 17.4699 61.4926 18.0337C61.8509 18.7033 62.2121 19.2554 62.5762 19.69C62.9404 20.1187 63.2311 20.3419 63.4484 20.3595C63.5541 20.3713 63.6451 20.4418 63.7215 20.571C63.7626 20.6532 63.8096 20.7002 63.8625 20.7119C63.9212 20.7237 63.9682 20.7295 64.0034 20.7295C64.0856 20.7295 64.1943 20.7149 64.3294 20.6855C64.7816 20.5915 65.0841 20.5445 65.2368 20.5445C65.3131 20.5445 65.3513 20.5563 65.3513 20.5798C65.3513 20.6385 65.2221 20.7178 64.9637 20.8176C64.4703 21.0173 64.0445 21.1289 63.6863 21.1524C63.6275 21.1583 63.5982 21.1642 63.5982 21.17C63.5982 21.1877 63.7362 21.2111 64.0122 21.2405C64.2941 21.2699 64.4733 21.2992 64.5496 21.3286C64.626 21.358 64.6642 21.3932 64.6642 21.4343C64.6642 21.4989 64.5819 21.5606 64.4175 21.6193C64.2941 21.6663 64.1561 21.7016 64.0034 21.7251C63.6921 21.7662 63.5365 21.8337 63.5365 21.9277C63.5365 21.9394 63.5394 21.9541 63.5453 21.9717C63.557 21.9893 63.5629 22.007 63.5629 22.0246C63.5629 22.1009 63.4366 22.1391 63.1841 22.1391C62.8963 22.1391 62.5733 22.0745 62.215 21.9453C61.8568 21.8102 61.5308 21.637 61.2371 21.4255L60.7614 21.0731C60.8671 21.1906 60.9699 21.3081 61.0697 21.4255C61.1696 21.5371 61.3105 21.6663 61.4926 21.8132C61.6512 21.9482 62.0418 22.2331 62.6643 22.6677C62.5175 22.6383 62.3736 22.6119 62.2326 22.5884C62.0976 22.5591 61.9507 22.515 61.7921 22.4563C61.6336 22.3917 61.4985 22.3271 61.3869 22.2625C61.0815 22.0628 60.7262 21.7427 60.3209 21.3022C59.9157 20.8617 59.6337 20.4917 59.4752 20.1921C59.3166 19.8867 59.2109 19.734 59.158 19.734C59.0993 19.734 58.9877 20.0013 58.8232 20.5357C58.6588 21.0643 58.4826 21.728 58.2946 22.5267C58.1831 23.0201 58.0392 23.9187 57.863 25.2226C57.675 26.5616 57.4724 28.2414 57.2551 30.2618ZM57.581 24.4032C57.5928 24.4032 57.6045 24.3974 57.6163 24.3856C57.628 24.368 57.6339 24.3445 57.6339 24.3151C57.6339 24.2858 57.6339 24.2652 57.6339 24.2535C57.6339 24.2182 57.6251 24.183 57.6075 24.1478C57.5957 24.1066 57.584 24.0861 57.5722 24.0861C57.5546 24.0861 57.5429 24.1331 57.537 24.227C57.537 24.3445 57.5517 24.4032 57.581 24.4032ZM57.678 23.7866C57.7543 23.7866 57.8688 23.302 58.0215 22.3329C57.863 22.8028 57.7661 23.1141 57.7308 23.2668C57.6838 23.4547 57.6603 23.6015 57.6603 23.7073C57.6603 23.7601 57.6662 23.7866 57.678 23.7866Z" fill="#FFE500"/>
<path d="M18.2452 35.7238H17.5756C16.9413 35.7238 16.4685 35.6915 16.1572 35.6269C15.3115 35.4038 14.6302 34.8664 14.1133 34.0147C14.0664 33.9325 14.0282 33.8914 13.9988 33.8914C13.9577 33.8914 13.9137 34.0236 13.8667 34.2878C13.8314 34.4758 13.7903 34.6402 13.7433 34.7812C13.6729 34.9926 13.6229 35.0984 13.5936 35.0984C13.5759 35.0984 13.5642 35.066 13.5583 35.0014C13.5583 34.8899 13.62 34.5933 13.7433 34.1116C13.8256 33.8004 13.8667 33.5008 13.8667 33.213C13.8667 33.0603 13.8549 32.9106 13.8314 32.7637C13.8138 32.611 13.805 32.4202 13.805 32.1911C13.805 31.78 13.8167 31.4276 13.8402 31.1339C13.8755 30.8109 13.8931 30.5349 13.8931 30.3058C13.8814 30.1296 13.8432 30.0063 13.7786 29.9358C13.7198 29.8594 13.6905 29.8125 13.6905 29.7948L13.7786 29.8301C13.8138 29.8477 13.852 29.8565 13.8931 29.8565C13.9225 29.8506 13.9371 29.8271 13.9371 29.786C13.9371 29.6979 13.9019 29.6539 13.8314 29.6539C13.7668 29.6539 13.7052 29.2633 13.6464 28.4822C13.5877 27.6658 13.4908 27.0403 13.3557 26.6057C13.1854 26.0712 12.8594 25.4457 12.3778 24.7292C12.043 24.23 11.814 23.9803 11.6906 23.9803C11.673 23.9803 11.6642 23.9892 11.6642 24.0068C11.6642 24.0714 11.7523 24.2358 11.9285 24.5001C12.0166 24.6176 12.0607 24.6881 12.0607 24.7116H12.0518C12.0166 24.7116 11.858 24.5765 11.5761 24.3063C11.0182 23.766 10.3134 23.3196 9.46175 22.9672C8.61014 22.609 7.47954 22.2859 6.06997 21.9981C5.02454 21.7808 4.24046 21.6017 3.71775 21.4607C3.19503 21.3198 2.79565 21.1759 2.51961 21.0291C1.26274 20.3654 0.634308 19.3963 0.634308 18.1218L0.643117 17.6813C0.643117 17.3877 0.619624 17.235 0.572639 17.2232C0.525653 17.2232 0.50216 17.4376 0.50216 17.8663C0.50216 18.5006 0.537399 18.9587 0.607878 19.2407C0.660737 19.4521 0.760582 19.6606 0.907412 19.8662C1.22457 20.3947 1.70617 20.8206 2.35222 21.1436C3.00415 21.4666 4.09657 21.8249 5.62948 22.2184C6.4576 22.4474 7.18295 22.6706 7.80551 22.8879C8.24012 23.0406 8.45743 23.1287 8.45743 23.1522C8.45743 23.1581 8.45156 23.161 8.43981 23.161C8.40457 23.161 8.08155 23.0935 7.47073 22.9584C7.06548 22.8762 6.60737 22.7793 6.0964 22.6677C4.08776 22.2624 2.65469 21.8102 1.7972 21.311C0.945588 20.8117 0.402315 20.1099 0.167387 19.2054C0.0557956 18.8413 0 18.4595 0 18.0601C0.00587322 17.696 0.0851617 17.2291 0.237865 16.6594C0.854553 14.3982 2.04975 12.2134 3.82346 10.1049C5.46797 8.21369 7.52947 6.53689 10.008 5.07446C12.4865 3.60616 15.194 2.43151 18.1306 1.55053C21.0672 0.663674 24.045 0.152704 27.0638 0.0176197C27.4397 0.00587322 27.8067 0 28.165 0C30.0033 0 31.639 0.187943 33.0721 0.563829C34.7929 1.02194 36.132 1.72966 37.0894 2.687C37.6238 3.20971 37.988 3.68544 38.1818 4.11419C38.3756 4.54293 38.4725 5.08621 38.4725 5.74401C38.4725 6.39006 38.405 6.90984 38.2699 7.30335C37.7942 8.54259 36.734 9.91693 35.0895 11.4263C33.445 12.9299 31.3072 14.4775 28.676 16.0691C27.6717 16.6741 27.1695 17 27.1695 17.047C27.2459 17.047 27.4455 17.0147 27.7686 16.9501C28.1503 16.8796 28.6173 16.7827 29.1693 16.6594C37.4741 14.8563 43.9933 13.8314 48.7271 13.5848C49.1089 13.5671 49.476 13.5583 49.8284 13.5583C53.7106 13.5583 55.6517 14.5509 55.6517 16.536C55.6517 18.1394 54.5064 19.872 52.2158 21.7338C50.0486 23.4958 46.7596 25.4751 42.3488 27.6717C38.402 29.6216 34.3436 31.3277 30.1737 32.7902C26.0095 34.2467 22.5209 35.1864 19.7076 35.6093C19.1261 35.6857 18.6387 35.7238 18.2452 35.7238ZM17.6813 33.0809C18.1277 33.0809 18.762 33.0163 19.5842 32.8871C21.957 32.4936 24.9582 31.6889 28.5879 30.4732C32.2234 29.2516 35.3509 27.9947 37.9704 26.7026C38.5224 26.4265 39.1802 26.1299 39.9438 25.8128C41.4473 25.1726 42.9538 24.4326 44.4632 23.5927C45.9785 22.7528 47.3675 21.8983 48.6302 21.0291C49.8989 20.1539 50.9237 19.3464 51.7049 18.6064C52.486 17.8663 52.8766 17.2937 52.8766 16.8884C52.8766 16.6594 52.6563 16.5037 52.2158 16.4215C51.7754 16.3334 51.0295 16.2894 49.9781 16.2894C48.1809 16.2894 45.8317 16.4802 42.9303 16.862C40.1581 17.232 37.6385 17.6754 35.3715 18.1923C34.8605 18.3215 34.4817 18.4008 34.235 18.4302C33.5478 18.5476 31.3072 19.0204 27.5131 19.8485C26.0037 20.1833 24.8613 20.4417 24.0861 20.6238C23.4165 20.7883 22.6765 20.9645 21.866 21.1524C20.2332 21.5283 19.2788 21.7867 19.0028 21.9277C18.8383 22.0158 18.7561 22.1009 18.7561 22.1831C18.7561 22.2477 18.7708 22.3035 18.8002 22.3505C18.8295 22.3975 18.8706 22.4239 18.9235 22.4298C18.9764 22.4298 19.0028 22.4386 19.0028 22.4562C19.0028 22.4739 18.9852 22.4944 18.9499 22.5179C18.8677 22.5825 18.7943 22.6677 18.7297 22.7734C18.6651 22.8732 18.624 22.9525 18.6064 23.0113C18.5946 23.07 18.5887 23.1082 18.5887 23.1258C18.5887 23.1669 18.6034 23.1875 18.6328 23.1875C18.6621 23.1875 18.6768 23.1992 18.6768 23.2227C18.6768 23.2873 18.621 23.3872 18.5094 23.5222C18.3332 23.7572 18.2452 23.948 18.2452 24.0949C18.2452 24.2358 18.204 24.4091 18.1218 24.6147C18.0455 24.8143 17.7841 25.6337 17.3377 27.0726C17.0147 28.1122 16.8385 28.7259 16.8091 28.9139C16.7857 29.0431 16.7739 29.1341 16.7739 29.187C16.7739 29.2281 16.7768 29.2574 16.7827 29.2751C16.7945 29.2927 16.8003 29.325 16.8003 29.372C16.8003 29.5599 16.7563 29.8829 16.6682 30.341C16.539 31.0165 16.4744 31.548 16.4744 31.9356C16.4744 32.3291 16.5507 32.6169 16.7034 32.799C16.862 32.9811 17.0588 33.075 17.2937 33.0809C17.5286 33.0809 17.6578 33.0809 17.6813 33.0809ZM14.1222 29.416C14.1398 29.416 14.1721 29.3543 14.2191 29.231C14.2719 29.1018 14.2983 28.9197 14.2983 28.6848C14.2983 28.4557 14.2719 28.168 14.2191 27.8214C14.0781 26.6468 13.7492 25.6483 13.2324 24.8261C12.9739 24.415 12.645 24.0038 12.2457 23.5927C11.8463 23.1757 11.4763 22.8644 11.1356 22.6589C10.9947 22.5766 10.9183 22.5355 10.9066 22.5355C10.9066 22.5414 10.9447 22.5708 11.0211 22.6236C11.4087 22.9114 11.8257 23.3137 12.2721 23.8306C12.7185 24.3416 13.0474 24.8055 13.2588 25.2225C13.4937 25.71 13.6846 26.2797 13.8314 26.9316C13.9783 27.5777 14.0575 28.1973 14.0693 28.7905C14.0752 29.2075 14.0928 29.416 14.1222 29.416ZM14.6684 27.5924C14.6801 27.5924 14.6919 27.5777 14.7036 27.5483C14.7271 27.4778 14.7565 27.3927 14.7917 27.2928C14.8269 27.193 14.8592 27.0961 14.8886 27.0021C14.9238 26.9081 15.1999 26.2239 15.7167 24.9494C16.1513 23.8688 16.4744 23.0788 16.6858 22.5796C16.6976 22.562 16.7034 22.5443 16.7034 22.5267C16.7034 22.4915 16.6653 22.4739 16.5889 22.4739C16.5302 22.4739 16.4538 22.4827 16.3598 22.5003C16.2717 22.5179 16.1866 22.5267 16.1044 22.5267C15.799 22.5267 15.5259 22.4239 15.285 22.2184C14.9796 21.96 14.8269 21.6252 14.8269 21.2141C14.8269 21.0849 14.9092 20.9116 15.0736 20.6943C15.2381 20.4711 15.426 20.2655 15.6374 20.0776C15.8548 19.8838 16.0515 19.7575 16.2277 19.6988C16.3217 19.6635 16.4773 19.5989 16.6946 19.505C16.9178 19.4051 17.1557 19.2906 17.4082 19.1614C17.6666 19.0322 17.8634 18.9235 17.9985 18.8354C18.1394 18.7414 18.251 18.6298 18.3332 18.5006C18.4155 18.3714 18.5094 18.1864 18.6152 17.9456C19.085 16.8943 19.5431 15.7255 19.9895 14.4393C20.4359 13.1531 20.7442 12.1135 20.9145 11.3206C20.9909 10.9271 21.0555 10.7304 21.1083 10.7304C21.126 10.7304 21.1406 10.7539 21.1524 10.8008C21.17 10.842 21.1876 10.8625 21.2053 10.8625C21.2699 10.8625 21.3286 10.6247 21.3814 10.1489C21.4049 9.88463 21.4167 9.61152 21.4167 9.32961C21.4167 9.04769 21.4431 8.90673 21.496 8.90673C21.5136 8.90673 21.5342 8.91848 21.5576 8.94197C21.5929 8.95372 21.6105 9.04769 21.6105 9.22389C21.6105 9.62914 21.4578 10.795 21.1524 12.7214C21.3814 12.3514 21.5077 12.1664 21.5312 12.1664C21.5371 12.1664 21.54 12.1693 21.54 12.1752C21.54 12.3514 21.4431 12.7772 21.2493 13.4526C21.0555 14.128 20.8176 14.8739 20.5357 15.6903C20.1422 16.8003 19.9454 17.42 19.9454 17.5492C19.9454 17.5609 19.9484 17.5668 19.9543 17.5668C19.9836 17.5668 20.1275 17.232 20.3859 16.5625C20.9439 15.0765 21.4196 13.6053 21.8131 12.1488C21.9717 11.5614 22.0686 11.2678 22.1039 11.2678C22.1097 11.2678 22.1127 11.2795 22.1127 11.303C22.1127 11.4968 21.9629 12.1194 21.6634 13.1707C21.4167 14.0458 21.1083 15.0736 20.7383 16.2541C20.5152 16.9354 20.4036 17.3436 20.4036 17.4787C20.4036 17.5316 20.4212 17.558 20.4564 17.558C20.5504 17.558 21.1641 17.2379 22.2977 16.5977C24.7233 15.241 26.6292 14.1222 28.0152 13.2412C30.435 11.7024 32.3027 10.3075 33.6183 9.0565C34.9339 7.80551 35.6357 6.75714 35.7238 5.91139C35.7415 5.78218 35.7503 5.67353 35.7503 5.58543C35.7503 5.37987 35.6945 5.25947 35.5829 5.22423C35.4772 5.18311 35.4243 5.13319 35.4243 5.07446L35.4419 5.0216C35.4419 4.88652 35.1806 4.61929 34.6579 4.21991C33.8474 3.59735 32.5288 3.15098 30.7022 2.88081C30.1854 2.81621 29.4307 2.78391 28.4381 2.78391C27.704 2.78391 26.9757 2.80152 26.2533 2.83676C25.4252 2.872 24.7879 2.9278 24.3416 3.00415L22.1831 3.40059C18.8119 4.04665 15.3996 5.32114 11.9461 7.22406C11.0416 7.7409 10.0344 8.42513 8.92435 9.27675C7.82019 10.1284 6.90103 10.9212 6.16688 11.6554C4.81604 13.112 3.78529 14.8152 3.07463 16.7651C2.88081 17.3172 2.78391 17.7547 2.78391 18.0778C2.78391 18.5359 3.02471 18.8795 3.50631 19.1085C3.75299 19.2436 4.36967 19.455 5.35637 19.7428C5.95544 19.919 6.8423 20.1745 8.01694 20.5093C8.94491 20.7853 9.75541 21.0937 10.4485 21.4343C10.8185 21.6164 11.1826 21.8307 11.5409 22.0774C11.905 22.3241 12.1957 22.5473 12.413 22.747C12.6304 22.9408 12.739 23.0788 12.739 23.161C12.739 23.1728 12.7361 23.1845 12.7302 23.1963C12.7243 23.2021 12.7214 23.2139 12.7214 23.2315C12.7214 23.2491 12.7243 23.2726 12.7302 23.302C12.7419 23.3314 12.7654 23.3578 12.8007 23.3813C12.8418 23.4048 12.8682 23.4165 12.88 23.4165C12.8917 23.4165 12.8976 23.4106 12.8976 23.3989C12.8976 23.3813 12.8829 23.349 12.8535 23.302L12.8359 23.2579C12.8359 23.2462 12.8389 23.2403 12.8447 23.2403C12.8682 23.2403 12.9299 23.2814 13.0297 23.3637C13.1942 23.5164 13.2793 23.6162 13.2852 23.6632C13.2911 23.7102 13.294 23.7366 13.294 23.7425C13.294 23.766 13.2852 23.7777 13.2676 23.7777C13.2382 23.7777 13.1766 23.7425 13.0826 23.672C12.9945 23.6015 12.9416 23.5663 12.924 23.5663C12.924 23.5839 12.9593 23.6338 13.0297 23.7161C13.1237 23.8453 13.2147 23.9099 13.3028 23.9099H13.3293C13.4115 23.9099 13.5554 24.0919 13.7609 24.4561C13.8843 24.6851 13.946 24.8085 13.946 24.8261C13.9401 24.8261 13.9283 24.8143 13.9107 24.7909C13.6582 24.4326 13.5172 24.2535 13.4878 24.2535C13.482 24.2535 13.479 24.2593 13.479 24.2711C13.479 24.3063 13.5378 24.4385 13.6552 24.6675C13.8432 25.0258 13.9753 25.2049 14.0517 25.2049C14.0634 25.2049 14.0722 25.199 14.0781 25.1873C14.0898 25.1697 14.1045 25.1609 14.1222 25.1609C14.1574 25.1609 14.1926 25.2167 14.2279 25.3283C14.2396 25.387 14.2455 25.431 14.2455 25.4604C14.2455 25.5074 14.2337 25.5309 14.2102 25.5309C14.1926 25.5309 14.1721 25.525 14.1486 25.5133C14.131 25.4956 14.1133 25.4868 14.0957 25.4868C14.0781 25.4868 14.0693 25.4986 14.0693 25.5221C14.0693 25.5456 14.0781 25.5867 14.0957 25.6454C14.1192 25.6983 14.1603 25.8363 14.2191 26.0595C14.2778 26.2826 14.3395 26.5323 14.4041 26.8083C14.5215 27.331 14.6096 27.5924 14.6684 27.5924ZM14.5098 26.3238C14.4745 26.3238 14.4334 26.268 14.3864 26.1564C14.3453 26.0389 14.3248 25.9214 14.3248 25.804C14.3248 25.7805 14.3307 25.7687 14.3424 25.7687C14.3659 25.7746 14.4041 25.8392 14.4569 25.9626C14.5098 26.1211 14.5362 26.2239 14.5362 26.2709C14.5362 26.3061 14.5274 26.3238 14.5098 26.3238ZM21.6017 11.999C21.5723 11.999 21.5576 11.9403 21.5576 11.8228C21.5635 11.7288 21.5753 11.6818 21.5929 11.6818C21.6046 11.6818 21.6164 11.7024 21.6281 11.7435C21.6457 11.7787 21.6546 11.814 21.6546 11.8492C21.6546 11.9491 21.6369 11.999 21.6017 11.999ZM26.8083 17.7342C26.8612 17.7342 26.9052 17.7224 26.9404 17.6989C26.9816 17.6696 27.0021 17.6402 27.0021 17.6108C27.0021 17.5639 26.9728 17.5404 26.914 17.5404C26.8847 17.5404 26.8465 17.5492 26.7995 17.5668C26.7525 17.5785 26.7114 17.5991 26.6762 17.6285C26.6409 17.652 26.6233 17.6696 26.6233 17.6813C26.6233 17.7166 26.685 17.7342 26.8083 17.7342ZM27.8126 17.4699C27.936 17.4699 27.9976 17.4552 27.9976 17.4258C27.9976 17.3847 27.9595 17.3642 27.8831 17.3642C27.8361 17.3642 27.7891 17.373 27.7421 17.3906C27.701 17.4082 27.6805 17.4229 27.6805 17.4346C27.6805 17.4523 27.7245 17.464 27.8126 17.4699ZM26.0154 17.3113C26.0976 17.3113 26.5646 17.0588 27.4162 16.5537C27.9565 16.2365 28.2267 16.0544 28.2267 16.0075C28.2267 16.0016 28.2237 15.9986 28.2179 15.9986C28.1474 15.9986 27.7715 16.1954 27.0902 16.5889C26.3561 17.0176 25.989 17.2526 25.989 17.2937C25.989 17.3054 25.9978 17.3113 26.0154 17.3113ZM29.6274 17.0823C29.8624 17.0588 30.3234 16.9736 31.0106 16.8268L32.0061 16.6241C33.3687 16.3364 34.05 16.166 34.05 16.1132C34.05 16.1073 34.047 16.1044 34.0412 16.1044C33.8415 16.1044 33.075 16.2394 31.7418 16.5096C30.2735 16.815 29.5393 17 29.5393 17.0646C29.5393 17.0764 29.554 17.0823 29.5834 17.0823H29.6274ZM35.301 15.9458C35.4184 15.9458 35.4772 15.9311 35.4772 15.9017C35.4772 15.8665 35.439 15.8459 35.3626 15.8401C35.3157 15.8401 35.2687 15.8489 35.2217 15.8665C35.1806 15.8841 35.16 15.8988 35.16 15.9105C35.16 15.9282 35.207 15.9399 35.301 15.9458ZM28.5526 15.796C28.5938 15.796 28.7112 15.7402 28.905 15.6286C29.2046 15.4642 29.3543 15.3555 29.3543 15.3027C29.3543 15.2968 29.3514 15.2939 29.3455 15.2939C29.2927 15.2939 29.1693 15.3497 28.9755 15.4612C28.676 15.6374 28.5262 15.7432 28.5262 15.7784C28.5262 15.7901 28.535 15.796 28.5526 15.796ZM35.997 15.8136C36.0733 15.8136 36.1115 15.799 36.1115 15.7696C36.1115 15.7344 36.0733 15.7167 35.997 15.7167C35.95 15.7167 35.903 15.7255 35.856 15.7432C35.8149 15.7608 35.7943 15.7755 35.7943 15.7872C35.7943 15.8048 35.8619 15.8136 35.997 15.8136Z" fill="#FFE500"/>
</svg>
