<svg width="1440" height="986" viewBox="0 0 1440 986" fill="none" xmlns="http://www.w3.org/2000/svg">
<g opacity="0.27">
<mask id="mask0_5832_5116" style="mask-type:luminance" maskUnits="userSpaceOnUse" x="0" y="-112" width="1440" height="1098">
<path d="M1440 -112H0V985.956H1440V-112Z" fill="white"/>
</mask>
<g mask="url(#mask0_5832_5116)">
<g opacity="0.26">
<path d="M721.263 450.616L524.127 -341.582H918.399L721.263 450.616Z" fill="url(#paint0_radial_5832_5116)"/>
<path d="M721.27 450.615L1316.57 -215.823L1595.35 -3.25829L721.27 450.615Z" fill="url(#paint1_radial_5832_5116)"/>
<path d="M721.27 450.609L1760.26 300.299V600.919L721.27 450.609Z" fill="url(#paint2_radial_5832_5116)"/>
<path d="M721.27 450.616L1595.35 904.49L1316.57 1117.08L721.27 450.616Z" fill="url(#paint3_radial_5832_5116)"/>
<path d="M721.263 450.616L918.399 1242.81H524.127L721.263 450.616Z" fill="url(#paint4_radial_5832_5116)"/>
<path d="M721.28 450.616L126.013 1117.08L-152.771 904.49L721.28 450.616Z" fill="url(#paint5_radial_5832_5116)"/>
<path d="M721.271 450.609L-317.688 600.919V300.299L721.271 450.609Z" fill="url(#paint6_radial_5832_5116)"/>
<path d="M721.28 450.615L-152.771 -3.25829L126.013 -215.823L721.28 450.615Z" fill="url(#paint7_radial_5832_5116)"/>
</g>
</g>
<mask id="mask1_5832_5116" style="mask-type:luminance" maskUnits="userSpaceOnUse" x="0" y="-112" width="1440" height="1098">
<path d="M1440 -112H0V985.956H1440V-112Z" fill="white"/>
</mask>
<g mask="url(#mask1_5832_5116)">
<path d="M1437.95 687.859L719.279 442.883L1437.95 733.271" fill="url(#paint8_linear_5832_5116)"/>
<path d="M1439.85 201.141L719.279 442.889L1484.01 231.62" fill="url(#paint9_linear_5832_5116)"/>
<path d="M996.594 -118.896L719.279 442.885L1056.04 -121.64" fill="url(#paint10_linear_5832_5116)"/>
<path d="M384.528 -100.407L719.27 442.883L423.408 -134.817" fill="url(#paint11_linear_5832_5116)"/>
<path d="M-18.2042 232.824L719.277 442.885L-21.9482 187.5" fill="url(#paint12_linear_5832_5116)"/>
<path d="M3.3934 692.624L719.275 442.883L-41.333 662.628" fill="url(#paint13_linear_5832_5116)"/>
<path d="M435.359 1002.73L719.269 442.883L375.887 1005.08" fill="url(#paint14_linear_5832_5116)"/>
<path d="M1039.48 991.224L719.279 442.883L999.676 1025.02" fill="url(#paint15_linear_5832_5116)"/>
</g>
</g>
<defs>
<radialGradient id="paint0_radial_5832_5116" cx="0" cy="0" r="1" gradientUnits="userSpaceOnUse" gradientTransform="translate(712.633 352.334) scale(802.409 611.813)">
<stop stop-color="white"/>
<stop offset="1" stop-color="white" stop-opacity="0"/>
</radialGradient>
<radialGradient id="paint1_radial_5832_5116" cx="0" cy="0" r="1" gradientUnits="userSpaceOnUse" gradientTransform="translate(806.317 376.462) rotate(37.3244) scale(713.504 688.047)">
<stop stop-color="white"/>
<stop offset="1" stop-color="white" stop-opacity="0"/>
</radialGradient>
<radialGradient id="paint2_radial_5832_5116" cx="0" cy="0" r="1" gradientUnits="userSpaceOnUse" gradientTransform="translate(850.181 444.023) rotate(90) scale(611.812 802.409)">
<stop stop-color="white"/>
<stop offset="1" stop-color="white" stop-opacity="0"/>
</radialGradient>
<radialGradient id="paint3_radial_5832_5116" cx="0" cy="0" r="1" gradientUnits="userSpaceOnUse" gradientTransform="translate(818.536 515.457) rotate(142.676) scale(713.504 688.047)">
<stop stop-color="white"/>
<stop offset="1" stop-color="white" stop-opacity="0"/>
</radialGradient>
<radialGradient id="paint4_radial_5832_5116" cx="0" cy="0" r="1" gradientUnits="userSpaceOnUse" gradientTransform="translate(729.912 548.902) rotate(180) scale(802.409 611.813)">
<stop stop-color="white"/>
<stop offset="1" stop-color="white" stop-opacity="0"/>
</radialGradient>
<radialGradient id="paint5_radial_5832_5116" cx="0" cy="0" r="1" gradientUnits="userSpaceOnUse" gradientTransform="translate(636.252 524.773) rotate(-142.676) scale(713.504 688.047)">
<stop stop-color="white"/>
<stop offset="1" stop-color="white" stop-opacity="0"/>
</radialGradient>
<radialGradient id="paint6_radial_5832_5116" cx="0" cy="0" r="1" gradientUnits="userSpaceOnUse" gradientTransform="translate(592.38 457.199) rotate(-90) scale(611.812 802.409)">
<stop stop-color="white"/>
<stop offset="1" stop-color="white" stop-opacity="0"/>
</radialGradient>
<radialGradient id="paint7_radial_5832_5116" cx="0" cy="0" r="1" gradientUnits="userSpaceOnUse" gradientTransform="translate(624.033 385.778) rotate(-37.3244) scale(713.504 688.047)">
<stop stop-color="white"/>
<stop offset="1" stop-color="white" stop-opacity="0"/>
</radialGradient>
<linearGradient id="paint8_linear_5832_5116" x1="870.42" y1="361.27" x2="1074.52" y2="705.439" gradientUnits="userSpaceOnUse">
<stop stop-color="white"/>
<stop offset="1" stop-color="white" stop-opacity="0"/>
</linearGradient>
<linearGradient id="paint9_linear_5832_5116" x1="734.95" y1="302.313" x2="1213.29" y2="349.349" gradientUnits="userSpaceOnUse">
<stop stop-color="white"/>
<stop offset="1" stop-color="white" stop-opacity="0"/>
</linearGradient>
<linearGradient id="paint10_linear_5832_5116" x1="592.478" y1="340.043" x2="867.646" y2="22.5721" gradientUnits="userSpaceOnUse">
<stop stop-color="white"/>
<stop offset="1" stop-color="white" stop-opacity="0"/>
</linearGradient>
<linearGradient id="paint11_linear_5832_5116" x1="533.916" y1="444.173" x2="547.976" y2="77.0385" gradientUnits="userSpaceOnUse">
<stop stop-color="white"/>
<stop offset="1" stop-color="white" stop-opacity="0"/>
</linearGradient>
<linearGradient id="paint12_linear_5832_5116" x1="587.246" y1="541.99" x2="360.055" y2="204.979" gradientUnits="userSpaceOnUse">
<stop stop-color="white"/>
<stop offset="1" stop-color="white" stop-opacity="0"/>
</linearGradient>
<linearGradient id="paint13_linear_5832_5116" x1="711.769" y1="583.844" x2="232.266" y2="545.955" gradientUnits="userSpaceOnUse">
<stop stop-color="white"/>
<stop offset="1" stop-color="white" stop-opacity="0"/>
</linearGradient>
<linearGradient id="paint14_linear_5832_5116" x1="837.109" y1="551.69" x2="558.416" y2="867.43" gradientUnits="userSpaceOnUse">
<stop stop-color="white"/>
<stop offset="1" stop-color="white" stop-opacity="0"/>
</linearGradient>
<linearGradient id="paint15_linear_5832_5116" x1="903.19" y1="459.662" x2="883.44" y2="826.729" gradientUnits="userSpaceOnUse">
<stop stop-color="white"/>
<stop offset="1" stop-color="white" stop-opacity="0"/>
</linearGradient>
</defs>
</svg>
