<svg width="137" height="74" viewBox="0 0 137 74" fill="none" xmlns="http://www.w3.org/2000/svg">
<path d="M103.865 73.9833C103.844 73.9833 103.833 73.9763 103.833 73.9621C103.833 73.8916 104.331 73.3339 105.326 72.2891C106.583 70.9761 107.211 70.2526 107.211 70.1184V70.1078C107.133 70.1078 106.487 70.7079 105.273 71.9079C104.998 72.1762 104.853 72.3103 104.839 72.3103C104.832 72.3103 104.825 72.2927 104.818 72.2574C104.818 72.2079 104.821 72.1409 104.828 72.0562C104.835 71.9715 104.899 71.8373 105.019 71.6538C105.132 71.4703 105.273 71.2832 105.442 71.0926C105.746 70.7538 105.979 70.489 106.141 70.2984C106.297 70.1078 106.395 69.9737 106.438 69.8961C106.473 69.8255 106.491 69.7761 106.491 69.7478C106.491 69.7055 106.466 69.6808 106.417 69.6737C106.325 69.6737 106.233 69.7161 106.141 69.8008C106.071 69.8572 106.028 69.8855 106.014 69.8855L106.004 69.8749C106.004 69.8608 106.057 69.7937 106.163 69.6737C106.339 69.4619 106.427 69.3172 106.427 69.2396C106.427 69.1619 107.197 68.0748 108.736 65.9782C109.018 65.59 109.159 65.3641 109.159 65.3006C109.159 65.2864 109.152 65.2794 109.138 65.2794C109.06 65.2864 108.831 65.5229 108.45 65.9888C108.047 66.5041 107.574 67.023 107.031 67.5454L106.237 68.3078C106.378 68.0819 106.519 67.856 106.66 67.6301C106.801 67.4112 107.133 66.9453 107.656 66.2324C108.171 65.5194 108.76 64.7252 109.424 63.8499C111.888 60.6098 113.797 57.8108 115.152 55.453C116.515 53.0953 117.57 50.7481 118.318 48.4115C118.636 47.4374 118.89 46.4561 119.081 45.4679C119.278 44.4796 119.381 43.6607 119.388 43.0113C119.381 42.4395 119.3 41.8183 119.144 41.1477C118.989 40.477 118.805 39.937 118.594 39.5276C118.347 39.0123 118.036 38.6981 117.662 38.5852C117.288 38.4652 116.79 38.4052 116.169 38.4052C115.858 38.4052 115.509 38.4158 115.121 38.437C114.528 38.4652 114.069 38.4793 113.744 38.4793C113.201 38.4793 112.798 38.4017 112.537 38.2464C111.746 37.8087 111.351 37.1734 111.351 36.3404C111.351 36.0157 111.411 35.6592 111.531 35.2709C111.764 34.3815 113.133 32.3131 115.639 29.0659C118.174 25.7552 119.836 23.4186 120.627 22.0562C121.008 21.4209 121.199 21.0361 121.199 20.902C121.199 20.8597 121.174 20.8385 121.124 20.8385C120.983 20.8385 120.464 21.1738 119.568 21.8444C117.697 23.2351 116.278 24.3857 115.311 25.2963C114.986 25.5999 114.771 25.7516 114.665 25.7516C114.644 25.7516 114.634 25.7446 114.634 25.7305C114.634 25.6811 114.708 25.5681 114.856 25.3916C114.877 25.3634 114.888 25.3457 114.888 25.3387C114.866 25.3387 114.729 25.4552 114.475 25.6881C114.185 25.9422 114.009 26.0693 113.945 26.0693C113.924 26.0623 113.913 26.0481 113.913 26.027C113.913 25.9493 114.065 25.7622 114.369 25.4658C114.679 25.1622 114.835 24.9257 114.835 24.7563C114.835 24.714 114.817 24.6928 114.782 24.6928C114.725 24.6928 114.623 24.7563 114.475 24.8834C114.333 25.0104 114.249 25.074 114.221 25.074C114.213 25.074 114.21 25.0704 114.21 25.0634C114.21 24.9998 114.316 24.841 114.528 24.5869C114.711 24.3681 114.926 24.1422 115.174 23.9092C115.717 23.3939 115.989 23.0974 115.989 23.0198C115.989 23.0127 115.985 23.0092 115.978 23.0092C115.95 23.0092 115.724 23.1892 115.301 23.5492C115.202 23.6339 115.142 23.6904 115.121 23.7186C114.57 24.2339 114.273 24.4916 114.231 24.4916V24.481C114.231 24.4386 114.464 24.1598 114.93 23.6445C116.278 22.1409 116.952 21.255 116.952 20.9867C116.952 20.895 117.065 20.7291 117.291 20.489C118.096 19.6067 118.601 19.0313 118.805 18.7631C118.89 18.6501 118.933 18.569 118.933 18.5195C118.933 18.4701 119.088 18.3431 119.398 18.1384C120.196 17.623 120.874 17.2665 121.431 17.0689C121.883 16.9136 122.303 16.8359 122.692 16.8359C123.023 16.8359 123.33 16.8959 123.613 17.0159C124.538 17.4254 125 18.2301 125 19.4302C125 19.8537 124.929 20.3196 124.788 20.8279C124.527 21.6185 124.043 22.6421 123.337 23.8986C122.632 25.1481 121.95 26.1787 121.294 26.9905C120.546 27.9223 119.247 29.6201 117.397 32.0837C116.084 33.8344 115.428 34.7909 115.428 34.9533C115.428 35.0309 115.876 35.0768 116.772 35.0909C117.302 35.0909 117.718 35.1191 118.022 35.1756C118.325 35.2321 118.643 35.338 118.975 35.4933C121.382 36.6439 122.586 39.2064 122.586 43.1807C122.586 44.056 122.536 44.8396 122.437 45.5314C122.339 46.2797 122.155 47.1126 121.887 48.0303C121.548 49.2798 121.191 50.3775 120.817 51.3234C120.302 52.6364 119.522 54.32 118.477 56.3743C118.188 56.939 117.672 57.8179 116.931 59.0109C116.352 59.9568 116.038 60.465 115.989 60.5356C115.121 61.9545 114.221 63.2252 113.289 64.3476C112.576 65.1947 111.94 66.0065 111.383 66.783C111.03 67.2489 110.564 67.8066 109.985 68.456C109.399 69.1125 108.863 69.6843 108.376 70.1714C107.881 70.6655 107.592 70.9126 107.507 70.9126H107.497C107.447 70.9126 107.288 71.0326 107.02 71.2726C106.752 71.5126 106.427 71.8232 106.046 72.2044C105.658 72.5927 105.319 72.9174 105.03 73.1786C104.74 73.4398 104.578 73.5704 104.542 73.5704C104.5 73.5704 104.44 73.5951 104.362 73.6445C104.278 73.6939 104.197 73.7539 104.119 73.8245C104.041 73.8951 103.985 73.9374 103.949 73.9516C103.907 73.9727 103.879 73.9833 103.865 73.9833ZM119.589 44.9596C119.61 44.9596 119.649 44.8149 119.706 44.5255C119.783 44.1372 119.822 43.7243 119.822 43.2866C119.822 43.1172 119.815 43.0325 119.801 43.0325C119.78 43.0325 119.741 43.2019 119.684 43.5407C119.607 43.9784 119.568 44.3843 119.568 44.7584C119.568 44.8925 119.575 44.9596 119.589 44.9596ZM119.758 42.5454C119.801 42.5454 119.822 42.443 119.822 42.2383C119.822 42.1748 119.815 42.1148 119.801 42.0583C119.787 42.0089 119.773 41.9842 119.758 41.9842C119.744 41.9842 119.734 42.0689 119.727 42.2383C119.727 42.443 119.737 42.5454 119.758 42.5454ZM118.604 38.6275C118.611 38.6275 118.615 38.624 118.615 38.617C118.615 38.5887 118.502 38.4722 118.276 38.2675C117.994 38.0205 117.796 37.8969 117.683 37.8969C117.662 37.8969 117.651 37.904 117.651 37.9181C117.651 37.9675 117.778 38.084 118.032 38.2675C118.378 38.5075 118.569 38.6275 118.604 38.6275ZM114.358 38.0134C114.577 38.0134 114.686 37.9993 114.686 37.971C114.686 37.9357 114.577 37.9181 114.358 37.9181C114.139 37.9181 114.03 37.9357 114.03 37.971C114.03 37.9993 114.139 38.0134 114.358 38.0134ZM116.338 37.844C116.811 37.844 117.048 37.8334 117.048 37.8122C117.048 37.7769 116.811 37.7593 116.338 37.7593C115.865 37.7593 115.629 37.7769 115.629 37.8122C115.629 37.8334 115.865 37.844 116.338 37.844ZM106.3 72.2891C106.286 72.2891 106.279 72.2785 106.279 72.2574C106.279 72.1585 106.487 71.9079 106.904 71.5056C107.165 71.2585 107.324 71.135 107.38 71.135C107.387 71.135 107.391 71.142 107.391 71.1561C107.391 71.2126 107.303 71.3467 107.126 71.5585C106.872 71.862 106.646 72.0809 106.448 72.215C106.378 72.2644 106.328 72.2891 106.3 72.2891Z" fill="#FFE500"/>
<path d="M99.5765 34.6885C99.1812 34.6885 98.8036 34.5756 98.4435 34.3497C97.9353 34.0249 97.6035 33.5732 97.4482 32.9943C97.3 32.4155 97.2258 31.7978 97.2258 31.1413C97.2258 29.7506 97.5364 27.5305 98.1576 24.481C98.8353 21.1279 99.2624 19.4513 99.4389 19.4513H99.4601C99.4953 19.4513 99.5342 19.4301 99.5765 19.3878C99.6189 19.3384 99.6542 19.2784 99.6824 19.2078C99.7107 19.1372 99.7354 19.1019 99.7565 19.1019C99.7848 19.1019 99.8024 19.2325 99.8095 19.4937C99.8165 19.7478 99.8307 19.8925 99.8518 19.9278C99.873 19.9631 99.8942 19.9808 99.9154 19.9808C99.9436 19.9808 99.986 19.9561 100.042 19.9066C100.099 19.8572 100.141 19.8325 100.169 19.8325C100.205 19.8325 100.222 19.8784 100.222 19.9702C100.222 20.0478 100.212 20.1678 100.191 20.3302C100.169 20.4855 100.145 20.6443 100.117 20.8067C100.095 20.962 100.074 21.082 100.053 21.1667L100.042 21.262C100.042 21.3255 100.06 21.3608 100.095 21.3679C100.18 21.3679 100.268 21.082 100.36 20.5102C100.431 20.0019 100.505 19.7478 100.582 19.7478C100.611 19.7478 100.628 19.8078 100.635 19.9278C100.635 20.0478 100.618 20.1961 100.582 20.3725C100.533 20.6549 100.508 20.9514 100.508 21.262C100.508 22.0103 100.586 22.5009 100.741 22.7338C100.861 22.8891 100.946 23.2386 100.995 23.7821C101.059 24.3468 101.133 24.6292 101.218 24.6292C101.267 24.6292 101.292 24.6504 101.292 24.6927C101.292 24.728 101.292 24.7563 101.292 24.7775C101.292 24.961 101.186 25.6457 100.974 26.8317C100.77 28.0176 100.667 28.8224 100.667 29.2459C100.667 29.4859 100.706 29.6059 100.784 29.6059C100.897 29.6059 101.175 29.2988 101.62 28.6847C102.072 28.0635 103.12 26.5175 104.765 24.0468C106.727 21.0961 108.009 19.236 108.609 18.4666C109.519 17.4006 110.352 16.8677 111.108 16.8677C111.39 16.8677 111.612 16.9771 111.775 17.1959C111.987 17.5277 112.142 17.8913 112.241 18.2866C112.347 18.6819 112.399 19.0172 112.399 19.2925C112.399 19.7302 112.167 21.1808 111.701 23.6445C111.362 25.4022 111.069 26.7717 110.822 27.7529C110.723 28.12 110.638 28.6706 110.568 29.4047C110.497 30.1318 110.419 30.6366 110.335 30.9189C110.236 31.2648 110.186 31.6248 110.186 31.999C110.186 32.3378 110.151 32.5072 110.081 32.5072C110.073 32.5072 110.063 32.5037 110.049 32.4966C110.042 32.4896 110.031 32.4861 110.017 32.4861C109.968 32.4861 109.922 32.5461 109.879 32.6661C109.844 32.779 109.823 32.9061 109.816 33.0473C109.809 33.1814 109.805 33.2696 109.805 33.312C109.805 33.5026 109.816 33.7002 109.837 33.9049C109.851 34.0249 109.858 34.1308 109.858 34.2226C109.858 34.4414 109.816 34.5509 109.731 34.5509C109.653 34.5509 109.583 34.3814 109.519 34.0426L109.159 32.0307C109.138 33.1814 109.117 33.7814 109.096 33.8308C109.075 33.9226 109.046 33.9685 109.011 33.9685C108.926 33.9685 108.838 33.8273 108.746 33.5449C108.683 33.3684 108.633 33.1779 108.598 32.9731C108.542 32.5496 108.468 32.3378 108.376 32.3378L108.312 32.3484C108.129 32.3484 108.023 31.6566 107.995 30.273C107.973 29.4471 107.935 29.0341 107.878 29.0341C107.829 29.0341 107.765 29.3306 107.687 29.9236C107.603 30.7071 107.497 31.0989 107.37 31.0989C107.285 31.0989 107.243 30.9048 107.243 30.5165C107.243 29.9589 107.306 29.1365 107.433 28.0494C107.504 27.4211 107.585 26.9058 107.677 26.5034C107.804 25.9528 107.868 25.614 107.868 25.4869L107.857 25.4445C107.8 25.4445 107.617 25.6951 107.306 26.1963C106.622 27.2693 105.764 28.5153 104.733 29.9342C103.703 31.346 102.912 32.359 102.361 32.9731C101.648 33.7214 101.101 34.1979 100.72 34.4026C100.325 34.5932 99.9436 34.6885 99.5765 34.6885ZM105.432 28.007C105.467 28.007 105.563 27.9117 105.718 27.7211C105.817 27.5941 105.916 27.4458 106.014 27.2764C106.12 27.0999 106.198 26.9587 106.247 26.8528C106.304 26.7399 106.332 26.6658 106.332 26.6305C106.332 26.6164 106.325 26.6093 106.311 26.6093C106.276 26.6093 106.096 26.8387 105.771 27.2976C105.531 27.6576 105.411 27.887 105.411 27.9858C105.411 28 105.418 28.007 105.432 28.007ZM106.438 26.4611C106.473 26.4611 106.562 26.3728 106.703 26.1963C106.795 26.0905 106.84 26.0269 106.84 26.0057H106.83C106.816 26.0057 106.756 26.0481 106.65 26.1328C106.466 26.2811 106.374 26.3799 106.374 26.4293C106.374 26.4505 106.396 26.4611 106.438 26.4611ZM107.635 24.9257C107.656 24.9257 107.723 24.8657 107.836 24.7457C107.97 24.6257 108.037 24.5233 108.037 24.4386C108.037 24.4033 108.023 24.3857 107.995 24.3857C107.917 24.3857 107.836 24.4774 107.751 24.661C107.666 24.8022 107.624 24.8869 107.624 24.9151C107.624 24.9222 107.627 24.9257 107.635 24.9257Z" fill="#FFE500"/>
<path d="M91.2008 38.6808C90.5584 38.6808 90.0008 38.4055 89.5278 37.8549C89.1819 37.4595 88.956 37.0819 88.8501 36.7219C88.7725 36.4748 88.7336 35.9948 88.7336 35.2818C88.7336 34.2723 88.7725 33.4641 88.8501 32.857C89.0478 31.2828 89.5101 29.3168 90.2372 26.9591C90.6467 25.6178 91.0349 24.4778 91.402 23.5389C91.7691 22.593 92.0197 22.12 92.1538 22.12L92.2067 22.1306C92.2844 22.1306 92.3656 22.0635 92.4503 21.9294C92.4997 21.8376 92.535 21.7918 92.5562 21.7918C92.5844 21.7918 92.5985 21.8271 92.5985 21.8976L92.5668 22.2682C92.5668 22.4447 92.6091 22.533 92.6938 22.533L92.7891 22.5224C92.8668 22.5224 92.9056 22.5718 92.9056 22.6706C92.9056 22.7694 92.8562 22.9495 92.7574 23.2106C92.6938 23.373 92.6621 23.4754 92.6621 23.5177C92.6621 23.5318 92.6656 23.5389 92.6727 23.5389C92.6938 23.5389 92.7468 23.4754 92.8315 23.3483C92.9868 23.1648 93.0644 23.0059 93.0644 22.8718C93.0644 22.7306 93.1209 22.6283 93.2339 22.5647C93.2621 22.5436 93.2833 22.533 93.2974 22.533C93.3186 22.533 93.3292 22.5541 93.3292 22.5965C93.3292 22.6459 93.315 22.72 93.2868 22.8189C93.188 23.1153 93.1386 23.3836 93.1386 23.6236C93.1386 23.906 93.2162 24.213 93.3715 24.5448C93.6327 25.0954 93.7633 25.4766 93.7633 25.6884V26.0272C93.7633 26.4437 93.6362 27.012 93.3821 27.732C93.0856 28.6003 92.9162 29.2003 92.8738 29.5321C92.8738 29.758 92.828 29.9345 92.7362 30.0616C92.6091 30.2874 92.415 31.1451 92.1538 32.6346C92.0479 33.2135 91.995 33.5982 91.995 33.7888C91.995 34.0712 92.062 34.2123 92.1962 34.2123C92.5774 34.2123 93.5056 33.0935 94.981 30.8557L95.4998 30.0404C95.7681 29.6098 96.0257 29.2568 96.2728 28.9815C96.5481 28.678 96.7811 28.3462 96.9717 27.9862C97.1693 27.6261 97.4658 27.192 97.8611 26.6838C98.3482 26.0625 98.6129 25.7519 98.6553 25.7519V25.7625C98.6553 25.7908 98.6235 25.8719 98.56 26.0061C98.5459 26.0414 98.5388 26.0696 98.5388 26.0908C98.5388 26.1049 98.5423 26.112 98.5494 26.112C98.5988 26.112 98.7718 25.9496 99.0682 25.6249C99.4283 25.2296 99.6436 25.0319 99.7142 25.0319C99.7353 25.0319 99.7459 25.0425 99.7459 25.0637C99.7459 25.1625 99.6012 25.4555 99.3118 25.9425C99.0294 26.4296 98.8882 26.7155 98.8882 26.8002C98.8882 26.8143 98.8953 26.8214 98.9094 26.8214C98.9588 26.8214 99.1177 26.6732 99.3859 26.3767C99.6259 26.1155 99.7883 25.9849 99.873 25.9849C99.9153 25.9849 99.9365 26.0202 99.9365 26.0908C99.9365 26.2037 99.88 26.4084 99.7671 26.7049C99.7106 26.8391 99.6824 26.9485 99.6824 27.0332C99.6824 27.132 99.7177 27.2026 99.7883 27.245C99.8659 27.2802 99.9048 27.3544 99.9048 27.4673C99.8977 27.665 99.7953 28.0144 99.5977 28.5156C99.5341 28.6709 99.4812 28.7697 99.4388 28.8121C99.3612 28.9039 99.3224 29.0062 99.3224 29.1192C99.3224 29.1333 99.3294 29.1403 99.3436 29.1403C99.4141 29.1403 99.5836 28.985 99.8518 28.6744C100.085 28.3991 100.244 28.2615 100.328 28.2615C100.371 28.2685 100.392 28.3038 100.392 28.3674C100.392 28.5227 100.268 28.8403 100.021 29.3203C99.7742 29.7933 99.2977 30.531 98.5918 31.5334C97.8929 32.5358 97.1623 33.5347 96.3999 34.53C95.6446 35.5253 95.0551 36.2454 94.6316 36.6901C93.3397 38.0172 92.1962 38.6808 91.2008 38.6808ZM92.0373 38.1619C92.0656 38.1619 92.1185 38.1478 92.1962 38.1196C92.2738 38.0843 92.3268 38.0525 92.355 38.0243C92.3832 37.996 92.3973 37.9749 92.3973 37.9607C92.3973 37.9255 92.3726 37.9078 92.3232 37.9078C92.2667 37.9078 92.1962 37.9502 92.1114 38.0349C92.0479 38.0913 92.0161 38.1302 92.0161 38.1513C92.0161 38.1584 92.0232 38.1619 92.0373 38.1619ZM90.2902 37.8972C90.3114 37.8972 90.322 37.8796 90.322 37.8443C90.322 37.809 90.209 37.696 89.9831 37.5054L89.6337 37.2089C90.0219 37.6678 90.2408 37.8972 90.2902 37.8972ZM92.7044 37.8866C92.8244 37.8866 93.1315 37.6572 93.6256 37.1984C93.8727 36.9583 93.9962 36.8278 93.9962 36.8066C93.9821 36.8066 93.9257 36.8454 93.8268 36.9231C93.495 37.1984 93.188 37.4313 92.9056 37.6219C92.7503 37.7278 92.6727 37.809 92.6727 37.8654C92.6727 37.8796 92.6832 37.8866 92.7044 37.8866ZM89.6231 37.0925C89.6513 37.0925 89.6655 37.0713 89.6655 37.0289C89.6655 36.9301 89.609 36.7783 89.496 36.5736C89.3972 36.3901 89.3266 36.2983 89.2843 36.2983C89.2701 36.2983 89.2631 36.3124 89.2631 36.3407C89.2631 36.4395 89.2878 36.5524 89.3372 36.6795C89.3866 36.7995 89.4396 36.8983 89.496 36.976C89.5525 37.0536 89.5949 37.0925 89.6231 37.0925ZM95.1504 19.674C94.9669 19.674 94.8469 19.6175 94.7904 19.5046C94.7269 19.3634 94.621 19.2928 94.4727 19.2928C94.4092 19.2928 94.3068 19.2575 94.1657 19.1869C94.0245 19.1163 93.8833 19.0246 93.7421 18.9116C93.3892 18.6575 93.1386 18.5304 92.9903 18.5304C92.8421 18.5304 92.7362 18.4669 92.6727 18.3398V18.3081C92.6727 18.1598 92.8244 17.7433 93.128 17.0586C93.4597 16.3174 93.6715 15.9468 93.7633 15.9468C93.7986 15.9468 93.9257 16.0033 94.1445 16.1162C94.3633 16.2221 94.6139 16.3527 94.8963 16.508C95.1786 16.6633 95.4398 16.8151 95.6798 16.9633C95.9269 17.1045 96.1034 17.2139 96.2093 17.2915C96.3152 17.3692 96.4211 17.4504 96.5269 17.5351L95.6798 19.4411C95.581 19.5964 95.4045 19.674 95.1504 19.674Z" fill="#FFE500"/>
<path d="M84.2332 40.3327C83.7956 40.3327 83.3967 40.2197 83.0367 39.9938C82.6696 39.7326 82.3873 39.4503 82.1896 39.1467C81.9637 38.8008 81.7978 38.2996 81.6919 37.6431C81.5861 36.9866 81.5331 36.3231 81.5331 35.6524L81.5543 34.4559C81.5543 34.0182 81.5402 33.7923 81.5119 33.7782C81.4625 33.7782 81.339 33.9441 81.1413 34.2759C80.9084 34.65 80.5484 35.0912 80.0613 35.5995C79.5813 36.1077 79.1683 36.4748 78.8224 36.7007C78.2647 37.0325 77.7388 37.1984 77.2447 37.1984C76.2493 37.1984 75.5187 36.6584 75.0528 35.5783C74.8763 35.0983 74.7881 34.5159 74.7881 33.8312C74.7881 33.0688 74.8975 32.1829 75.1163 31.1734C75.5328 29.2533 76.2034 27.3015 77.1282 25.3178C78.293 22.8118 79.5954 20.9623 81.0354 19.7693C81.7555 19.1764 82.539 18.8799 83.3861 18.8799C84.0215 18.8799 84.6603 19.0599 85.3027 19.4199C85.8957 19.7517 86.1921 19.9882 86.1921 20.1294C86.1921 20.1646 86.171 20.1823 86.1286 20.1823C86.0651 20.1823 85.9663 20.1364 85.8321 20.0446L85.7792 20.0129L85.7686 20.0235C85.7686 20.0446 85.8745 20.1717 86.0863 20.4047C86.3827 20.7294 86.531 20.9306 86.531 21.0082C86.531 21.0294 86.5204 21.04 86.4992 21.04C86.4286 21.04 86.2416 20.8882 85.938 20.5847C85.5851 20.2317 85.3486 20.0552 85.2286 20.0552C85.1015 20.0552 85.038 20.087 85.038 20.1505C85.038 20.2282 85.1474 20.3588 85.3662 20.5423L85.7157 20.8494L85.2603 20.5423C84.6391 20.1541 84.0673 19.9599 83.545 19.9599C83.3967 19.9599 83.2626 19.9846 83.1426 20.0341C83.0296 20.0835 82.9732 20.1188 82.9732 20.1399C82.9732 20.1752 83.1391 20.1964 83.4708 20.2035C84.2262 20.2317 84.798 20.4717 85.1862 20.9235C85.2498 20.9941 85.2815 21.04 85.2815 21.0612L85.2709 21.0718C85.2427 21.0718 85.1333 21.0012 84.9427 20.86C84.5191 20.5564 84.1097 20.4047 83.7144 20.4047C83.5308 20.4047 83.3403 20.44 83.1426 20.5105C82.952 20.5741 82.7543 20.7011 82.5496 20.8917C82.3449 21.0753 82.1861 21.2588 82.0731 21.4424C81.9602 21.6188 81.9037 21.76 81.9037 21.8659L81.9143 21.9506C81.9355 22.0071 81.9461 22.053 81.9461 22.0883C81.9461 22.1589 81.9214 22.1942 81.8719 22.1942C81.7802 22.1942 81.6355 22.533 81.4378 23.2107C81.3602 23.4789 81.3037 23.726 81.2684 23.9519C81.2402 24.1778 80.9754 24.7919 80.4742 25.7943C79.9095 26.9732 79.3942 28.2615 78.9283 29.6592C78.7236 30.2663 78.6212 30.6616 78.6212 30.8451C78.6212 31.1346 78.6777 31.2793 78.7906 31.2793C79.0589 31.2793 79.4718 30.7146 80.0295 29.5851C80.3683 28.9215 80.9437 27.6262 81.7555 25.699C82.0943 24.9013 82.4084 24.206 82.6979 23.613C82.9944 23.013 83.1955 22.653 83.3014 22.533C83.5061 22.3071 83.8132 22.1942 84.2226 22.1942H84.4027C85.045 22.1942 85.4545 22.4483 85.6309 22.9565C85.7227 23.2248 85.7686 23.6272 85.7686 24.1637C85.7686 24.6719 85.7262 25.3037 85.6415 26.059C85.1403 30.7746 84.8897 33.81 84.8897 35.1654C84.8897 35.6171 84.918 35.8819 84.9744 35.9595H84.9956C85.1086 35.9595 85.338 35.7513 85.6839 35.3348C86.051 34.8971 86.4392 34.3712 86.8486 33.7571C87.2581 33.1429 87.5757 32.5923 87.8016 32.1052C88.0064 31.6605 88.2781 31.1805 88.617 30.6651C88.9558 30.1498 89.3123 29.4721 89.6864 28.6321C90.0535 27.8344 90.2653 27.4356 90.3218 27.4356L90.3323 27.4673C90.3323 27.5591 90.2688 27.725 90.1417 27.965C89.9864 28.2897 89.9088 28.4839 89.9088 28.5474C89.9088 28.5686 89.9159 28.5792 89.93 28.5792C89.9864 28.5792 90.1453 28.3144 90.4065 27.785C90.5335 27.5238 90.6465 27.2591 90.7453 26.9909C91.0206 26.3132 91.243 25.8543 91.4124 25.6143C91.483 25.5155 91.5289 25.4661 91.55 25.4661C91.5712 25.4661 91.5818 25.4837 91.5818 25.519C91.5818 25.6461 91.4018 26.2426 91.0418 27.3085C90.6888 28.3533 90.4559 28.9992 90.3429 29.2463C90.2865 29.338 90.2582 29.4157 90.2582 29.4792C90.2582 29.5004 90.2688 29.511 90.29 29.511C90.3465 29.511 90.5829 29.0662 90.9994 28.1768C91.3453 27.4285 91.5642 27.0544 91.6559 27.0544C91.7124 27.0544 91.7406 27.1356 91.7406 27.2979C91.7406 27.5662 91.6559 27.9332 91.4865 28.3992C91.3312 28.8298 91.2536 29.1051 91.2536 29.2251C91.2536 29.2815 91.2747 29.3098 91.3171 29.3098C91.3312 29.3098 91.3524 29.3063 91.3806 29.2992C91.4089 29.2851 91.4336 29.278 91.4547 29.278C91.5042 29.278 91.5289 29.3133 91.5289 29.3839C91.5289 29.5321 91.4089 29.9733 91.1689 30.7075C90.7947 31.837 90.5018 32.6029 90.29 33.0053C90.1982 33.1888 90.1523 33.3159 90.1523 33.3864C90.1523 33.4076 90.1594 33.4182 90.1735 33.4182L90.2053 33.4076C90.2547 33.3723 90.3359 33.2629 90.4488 33.0794C90.5688 32.8958 90.6924 32.6805 90.8194 32.4335C90.9465 32.1864 91.0806 31.9393 91.2218 31.6922C91.37 31.4381 91.4936 31.2405 91.5924 31.0993C91.6912 30.951 91.7936 30.8028 91.8995 30.6546L91.8042 31.1099C91.7406 31.4064 91.5571 31.8793 91.2536 32.5288C90.95 33.1782 90.6041 33.8594 90.2159 34.5724C89.8276 35.2783 89.4711 35.8713 89.1464 36.3513C87.8334 38.2643 86.7039 39.4608 85.758 39.9409C85.2074 40.2021 84.6991 40.3327 84.2332 40.3327Z" fill="#FFE500"/>
<path d="M68.8161 36.3724C67.0655 36.3441 65.9925 36.3089 65.5972 36.2665C65.3501 36.2241 65.2266 36.1394 65.2266 36.0124C65.2266 35.97 65.2336 35.9206 65.2477 35.8641C65.283 35.6594 65.336 34.7629 65.4066 33.1746C65.463 31.7416 65.5725 30.1639 65.7348 28.4414C65.9042 26.8178 65.996 25.1413 66.0101 23.4118C66.0101 21.4211 66.056 20.4258 66.1478 20.4258H66.1584C66.1866 20.4399 66.2466 20.514 66.3384 20.6481C66.4513 20.8175 66.5431 20.9022 66.6137 20.9022C66.656 20.9022 66.6949 20.867 66.7302 20.7964C66.7655 20.7187 66.7972 20.6799 66.8255 20.6799C66.8537 20.6869 66.8819 20.7364 66.9102 20.8281C67.1149 21.4634 67.2314 21.7882 67.2596 21.8023H67.2702C67.2914 21.8023 67.302 21.7529 67.302 21.654C67.302 21.4705 67.2596 21.2023 67.1749 20.8493C67.1325 20.7081 67.1114 20.5881 67.1114 20.4893C67.1114 20.4469 67.1184 20.4258 67.1325 20.4258C67.1678 20.4258 67.2172 20.5034 67.2808 20.6587C67.3443 20.8069 67.3973 20.9728 67.4396 21.1564C67.6373 21.8552 67.7996 22.2047 67.9267 22.2047C67.9408 22.2047 67.9585 22.1976 67.9796 22.1835C68.0008 22.1623 68.0608 22.0529 68.1596 21.8552C68.2655 21.6505 68.3891 21.407 68.5302 21.1246C69.222 19.6916 70.0091 18.9751 70.8915 18.9751C71.3363 18.9751 71.8022 19.1516 72.2892 19.5045C72.5857 19.6951 72.8399 19.9351 73.0516 20.2246C73.2705 20.514 73.5564 20.9975 73.9093 21.6752C74.3399 22.48 74.7741 23.1435 75.2117 23.6659C75.6494 24.1812 75.9988 24.4495 76.26 24.4706C76.3871 24.4848 76.4965 24.5695 76.5883 24.7248C76.6377 24.8236 76.6942 24.8801 76.7577 24.8942C76.8283 24.9083 76.8848 24.9154 76.9271 24.9154C77.0259 24.9154 77.1565 24.8977 77.3189 24.8624C77.8624 24.7495 78.226 24.693 78.4095 24.693C78.5013 24.693 78.5472 24.7071 78.5472 24.7354C78.5472 24.806 78.3919 24.9013 78.0813 25.0213C77.4883 25.2613 76.9765 25.3954 76.5459 25.4236C76.4753 25.4307 76.44 25.4378 76.44 25.4448C76.44 25.466 76.6059 25.4942 76.9377 25.5295C77.2765 25.5648 77.4918 25.6001 77.5836 25.6354C77.6754 25.6707 77.7213 25.7131 77.7213 25.7625C77.7213 25.8401 77.6224 25.9142 77.4248 25.9848C77.2765 26.0413 77.1106 26.0837 76.9271 26.1119C76.553 26.1613 76.3659 26.2425 76.3659 26.3554C76.3659 26.3696 76.3694 26.3872 76.3765 26.4084C76.3906 26.4296 76.3977 26.4507 76.3977 26.4719C76.3977 26.5637 76.2459 26.6096 75.9424 26.6096C75.5965 26.6096 75.2082 26.5319 74.7776 26.3766C74.347 26.2143 73.9552 26.006 73.6022 25.7519L73.0305 25.3283C73.1575 25.4695 73.2811 25.6107 73.4011 25.7519C73.5211 25.886 73.6905 26.0413 73.9093 26.2178C74.0999 26.3802 74.5694 26.7225 75.3176 27.2449C75.1411 27.2096 74.9682 27.1778 74.7988 27.1496C74.6364 27.1143 74.4599 27.0614 74.2693 26.9908C74.0787 26.9131 73.9164 26.8355 73.7823 26.7578C73.4152 26.5178 72.9881 26.1331 72.501 25.6036C72.0139 25.0742 71.6751 24.6295 71.4845 24.2695C71.2939 23.9024 71.1668 23.7188 71.1033 23.7188C71.0327 23.7188 70.8986 24.04 70.7009 24.6824C70.5033 25.3177 70.2915 26.1154 70.0656 27.0755C69.9315 27.6684 69.7585 28.7485 69.5468 30.3156C69.3209 31.9251 69.0773 33.944 68.8161 36.3724ZM69.2079 29.3309C69.222 29.3309 69.2362 29.3238 69.2503 29.3097C69.2644 29.2885 69.2715 29.2603 69.2715 29.225C69.2715 29.1897 69.2715 29.165 69.2715 29.1509C69.2715 29.1085 69.2609 29.0662 69.2397 29.0238C69.2256 28.9744 69.2115 28.9497 69.1973 28.9497C69.1762 28.9497 69.162 29.0062 69.155 29.1191C69.155 29.2603 69.1726 29.3309 69.2079 29.3309ZM69.3244 28.5897C69.4162 28.5897 69.5538 28.0073 69.7374 26.8425C69.5468 27.4073 69.4303 27.7814 69.3879 27.9649C69.3315 28.1908 69.3032 28.3673 69.3032 28.4944C69.3032 28.5579 69.3103 28.5897 69.3244 28.5897Z" fill="#FFE500"/>
<path d="M21.9293 42.9373H21.1245C20.3621 42.9373 19.7939 42.8985 19.4197 42.8208C18.4032 42.5526 17.5844 41.9067 16.9631 40.8831C16.9067 40.7843 16.8608 40.7349 16.8255 40.7349C16.7761 40.7349 16.7231 40.8937 16.6667 41.2113C16.6243 41.4372 16.5749 41.6349 16.5184 41.8043C16.4337 42.0584 16.3737 42.1855 16.3384 42.1855C16.3172 42.1855 16.3031 42.1467 16.2961 42.069C16.2961 41.9349 16.3702 41.5784 16.5184 40.9996C16.6172 40.6254 16.6667 40.2654 16.6667 39.9195C16.6667 39.736 16.6525 39.556 16.6243 39.3795C16.6031 39.196 16.5925 38.9665 16.5925 38.6912C16.5925 38.1971 16.6067 37.7735 16.6349 37.4206C16.6773 37.0323 16.6984 36.7005 16.6984 36.4252C16.6843 36.2135 16.6384 36.0652 16.5608 35.9805C16.4902 35.8887 16.4549 35.8323 16.4549 35.8111L16.5608 35.8534C16.6031 35.8746 16.649 35.8852 16.6984 35.8852C16.7337 35.8782 16.7514 35.8499 16.7514 35.8005C16.7514 35.6946 16.709 35.6417 16.6243 35.6417C16.5467 35.6417 16.4725 35.1722 16.4019 34.2334C16.3314 33.2521 16.2149 32.5003 16.0525 31.978C15.8478 31.3356 15.456 30.5838 14.8772 29.7226C14.4748 29.1225 14.1995 28.8225 14.0512 28.8225C14.0301 28.8225 14.0195 28.8331 14.0195 28.8543C14.0195 28.9319 14.1254 29.1296 14.3371 29.4473C14.443 29.5884 14.496 29.6732 14.496 29.7014H14.4854C14.443 29.7014 14.2524 29.539 13.9136 29.2143C13.243 28.5649 12.3959 28.0284 11.3723 27.6048C10.3487 27.1742 8.98983 26.786 7.29564 26.4401C6.03911 26.1789 5.09671 25.9636 4.46844 25.7941C3.84018 25.6247 3.36016 25.4518 3.02838 25.2753C1.51772 24.4776 0.762389 23.3129 0.762389 21.781L0.772977 21.2516C0.772977 20.8986 0.744741 20.7151 0.688268 20.701C0.631794 20.701 0.603558 20.9586 0.603558 21.4739C0.603558 22.2363 0.645913 22.787 0.730622 23.1258C0.794155 23.3799 0.91416 23.6305 1.09064 23.8776C1.47183 24.5129 2.05068 25.0247 2.82719 25.413C3.61076 25.8012 4.92376 26.2318 6.7662 26.7048C7.76154 26.9801 8.63335 27.2483 9.38162 27.5095C9.90399 27.6931 10.1652 27.799 10.1652 27.8272C10.1652 27.8342 10.1581 27.8378 10.144 27.8378C10.1017 27.8378 9.7134 27.7566 8.97924 27.5942C8.49216 27.4954 7.94155 27.3789 7.3274 27.2448C4.91317 26.7577 3.19074 26.2142 2.1601 25.6141C1.13652 25.0141 0.483552 24.1705 0.201186 23.0834C0.067062 22.6458 0 22.1869 0 21.7069C0.00705915 21.2692 0.102358 20.708 0.285896 20.0233C1.02711 17.3055 2.46364 14.6795 4.59551 12.1453C6.57207 9.87223 9.04984 7.85684 12.0288 6.09911C15.0078 4.33432 18.262 2.92249 21.7916 1.86362C25.3212 0.797684 28.9002 0.183538 32.5286 0.0211775C32.9804 0.00705915 33.4216 0 33.8522 0C36.0617 0 38.0277 0.225893 39.7501 0.677679C41.8184 1.22829 43.4279 2.07892 44.5786 3.22956C45.2209 3.85783 45.6586 4.42962 45.8916 4.94494C46.1245 5.46026 46.241 6.11323 46.241 6.90385C46.241 7.68036 46.1598 8.30509 45.9974 8.77806C45.4257 10.2675 44.1515 11.9194 42.1749 13.7336C40.1984 15.5407 37.6288 17.4008 34.4663 19.3138C33.2592 20.0409 32.6556 20.4327 32.6556 20.4892C32.7474 20.4892 32.9874 20.4504 33.3757 20.3727C33.8345 20.288 34.3957 20.1715 35.0593 20.0233C45.0409 17.8561 52.8766 16.6243 58.5663 16.3278C59.0251 16.3066 59.4663 16.2961 59.8899 16.2961C64.556 16.2961 66.889 17.4891 66.889 19.875C66.889 21.8022 65.5125 23.8846 62.7594 26.1224C60.1546 28.2401 56.2015 30.6191 50.9 33.2592C46.1563 35.6028 41.2784 37.6535 36.2664 39.4113C31.2615 41.1619 27.0683 42.2914 23.687 42.7997C22.9881 42.8914 22.4022 42.9373 21.9293 42.9373ZM21.2516 39.7607C21.7881 39.7607 22.5505 39.683 23.5387 39.5277C26.3906 39.0548 29.9979 38.0877 34.3604 36.6264C38.73 35.1581 42.4891 33.6475 45.6374 32.0944C46.301 31.7627 47.0916 31.4062 48.0093 31.025C49.8165 30.2555 51.6271 29.3661 53.4413 28.3566C55.2626 27.3472 56.9321 26.3201 58.4498 25.2753C59.9746 24.2235 61.2064 23.2529 62.1453 22.3634C63.0841 21.4739 63.5536 20.7857 63.5536 20.2986C63.5536 20.0233 63.2888 19.8362 62.7594 19.7374C62.23 19.6315 61.3335 19.5786 60.0699 19.5786C57.9098 19.5786 55.0861 19.808 51.5989 20.2668C48.267 20.7116 45.2386 21.2445 42.5138 21.8657C41.8996 22.021 41.4443 22.1163 41.1478 22.1516C40.3219 22.2928 37.6288 22.8611 33.0686 23.8564C31.2544 24.2588 29.8814 24.5694 28.9496 24.7882C28.1448 24.9859 27.2554 25.1977 26.2812 25.4235C24.3188 25.8753 23.1717 26.1859 22.8399 26.3554C22.6422 26.4612 22.5434 26.5636 22.5434 26.6624C22.5434 26.7401 22.5611 26.8071 22.5964 26.8636C22.6316 26.9201 22.6811 26.9519 22.7446 26.9589C22.8081 26.9589 22.8399 26.9695 22.8399 26.9907C22.8399 27.0119 22.8187 27.0366 22.7764 27.0648C22.6775 27.1424 22.5893 27.2448 22.5116 27.3719C22.434 27.4919 22.3846 27.5872 22.3634 27.6578C22.3493 27.7284 22.3422 27.7742 22.3422 27.7954C22.3422 27.8448 22.3599 27.8695 22.3952 27.8695C22.4305 27.8695 22.4481 27.8837 22.4481 27.9119C22.4481 27.9895 22.381 28.1096 22.2469 28.2719C22.0352 28.5543 21.9293 28.7837 21.9293 28.9602C21.9293 29.1296 21.8798 29.3378 21.781 29.5849C21.6893 29.8249 21.3751 30.8097 20.8386 32.5392C20.4504 33.7886 20.2386 34.5263 20.2033 34.7522C20.1751 34.9075 20.1609 35.0169 20.1609 35.0805C20.1609 35.1299 20.1645 35.1652 20.1715 35.1864C20.1857 35.2075 20.1927 35.2464 20.1927 35.3028C20.1927 35.5287 20.1398 35.917 20.0339 36.4676C19.8786 37.2794 19.8009 37.9182 19.8009 38.3842C19.8009 38.8571 19.8927 39.203 20.0762 39.4218C20.2668 39.6407 20.5033 39.7536 20.7857 39.7607C21.068 39.7607 21.2233 39.7607 21.2516 39.7607ZM16.9737 35.3558C16.9949 35.3558 17.0337 35.2817 17.0902 35.1334C17.1537 34.9781 17.1855 34.7593 17.1855 34.4769C17.1855 34.2016 17.1537 33.8557 17.0902 33.4392C16.9208 32.0274 16.5255 30.8273 15.9043 29.839C15.5937 29.3449 15.1984 28.8508 14.7183 28.3566C14.2383 27.8554 13.7936 27.4813 13.3842 27.2342C13.2147 27.1354 13.123 27.086 13.1088 27.086C13.1088 27.093 13.1547 27.1283 13.2465 27.1919C13.7124 27.5378 14.2136 28.0213 14.7501 28.6425C15.2866 29.2567 15.6819 29.8143 15.936 30.3155C16.2184 30.9014 16.4478 31.5862 16.6243 32.3698C16.8008 33.1463 16.8961 33.891 16.9102 34.604C16.9173 35.1052 16.9384 35.3558 16.9737 35.3558ZM17.6302 33.1639C17.6444 33.1639 17.6585 33.1463 17.6726 33.111C17.7008 33.0263 17.7361 32.9239 17.7785 32.8039C17.8208 32.6839 17.8597 32.5674 17.895 32.4545C17.9373 32.3415 18.2691 31.5191 18.8903 29.9873C19.4127 28.6884 19.8009 27.7389 20.0551 27.1389C20.0692 27.1177 20.0762 27.0966 20.0762 27.0754C20.0762 27.033 20.0303 27.0119 19.9386 27.0119C19.868 27.0119 19.7762 27.0224 19.6633 27.0436C19.5574 27.0648 19.455 27.0754 19.3562 27.0754C18.9891 27.0754 18.6609 26.9519 18.3714 26.7048C18.0044 26.3942 17.8208 25.9918 17.8208 25.4977C17.8208 25.3424 17.9197 25.1341 18.1173 24.8729C18.315 24.6047 18.5409 24.3576 18.795 24.1317C19.0562 23.8988 19.2927 23.747 19.5044 23.6764C19.6174 23.634 19.8045 23.5564 20.0656 23.4435C20.3339 23.3234 20.6198 23.1858 20.9233 23.0305C21.2339 22.8752 21.4704 22.7446 21.6328 22.6387C21.8022 22.5258 21.9363 22.3916 22.0352 22.2363C22.134 22.081 22.2469 21.8587 22.374 21.5692C22.9387 20.3057 23.4893 18.9009 24.0258 17.3549C24.5623 15.809 24.9329 14.5595 25.1376 13.6065C25.2294 13.1336 25.3071 12.8971 25.3706 12.8971C25.3918 12.8971 25.4094 12.9253 25.4235 12.9818C25.4447 13.0312 25.4659 13.0559 25.4871 13.0559C25.5647 13.0559 25.6353 12.77 25.6989 12.1982C25.7271 11.8806 25.7412 11.5523 25.7412 11.2135C25.7412 10.8746 25.773 10.7052 25.8365 10.7052C25.8577 10.7052 25.8824 10.7193 25.9106 10.7476C25.953 10.7617 25.9742 10.8746 25.9742 11.0864C25.9742 11.5735 25.7906 12.9747 25.4235 15.2901C25.6989 14.8454 25.8506 14.623 25.8789 14.623C25.8859 14.623 25.8894 14.6266 25.8894 14.6336C25.8894 14.8454 25.773 15.3572 25.54 16.169C25.3071 16.9808 25.0212 17.8773 24.6823 18.8585C24.2094 20.1927 23.9729 20.9375 23.9729 21.0928C23.9729 21.1069 23.9764 21.1139 23.9835 21.1139C24.0188 21.1139 24.1917 20.7116 24.5023 19.9068C25.1729 18.1208 25.7447 16.3525 26.2177 14.6019C26.4083 13.8959 26.5248 13.543 26.5671 13.543C26.5742 13.543 26.5777 13.5571 26.5777 13.5853C26.5777 13.8183 26.3977 14.5666 26.0377 15.8302C25.7412 16.882 25.3706 18.1173 24.9259 19.5362C24.6576 20.3551 24.5235 20.8457 24.5235 21.008C24.5235 21.0716 24.5447 21.1033 24.587 21.1033C24.7 21.1033 25.4377 20.7186 26.8001 19.9492C29.7155 18.3185 32.0062 16.9737 33.6722 15.9149C36.5805 14.0654 38.8253 12.3888 40.4066 10.8852C41.9879 9.38162 42.8314 8.12156 42.9373 7.10504C42.9585 6.94974 42.9691 6.81914 42.9691 6.71326C42.9691 6.46619 42.902 6.32147 42.7679 6.27912C42.6408 6.2297 42.5773 6.1697 42.5773 6.09911L42.5985 6.03558C42.5985 5.87322 42.2843 5.55202 41.6561 5.072C40.6819 4.32373 39.0971 3.78724 36.9017 3.46252C36.2805 3.38486 35.3734 3.34604 34.1804 3.34604C33.298 3.34604 32.4227 3.36722 31.5544 3.40957C30.5591 3.45193 29.7932 3.51899 29.2567 3.61076L26.6624 4.08725C22.6105 4.86376 18.5091 6.39559 14.3583 8.68276C13.2712 9.30397 12.0606 10.1264 10.7264 11.1499C9.39926 12.1735 8.29451 13.1265 7.41211 14.0089C5.78851 15.7596 4.54962 17.8067 3.69547 20.1504C3.46252 20.8139 3.34604 21.3398 3.34604 21.7281C3.34604 22.2787 3.63546 22.6917 4.21431 22.967C4.5108 23.1293 5.25201 23.3834 6.43795 23.7293C7.15798 23.9411 8.22392 24.2482 9.63575 24.6506C10.7511 24.9823 11.7253 25.353 12.5582 25.7624C13.003 25.9812 13.4406 26.2389 13.8712 26.5354C14.3089 26.8318 14.6583 27.1001 14.9195 27.3401C15.1807 27.5731 15.3113 27.7389 15.3113 27.8378C15.3113 27.8519 15.3078 27.866 15.3007 27.8801C15.2937 27.8872 15.2901 27.9013 15.2901 27.9225C15.2901 27.9437 15.2937 27.9719 15.3007 28.0072C15.3148 28.0425 15.3431 28.0743 15.3854 28.1025C15.4348 28.1307 15.4666 28.1448 15.4807 28.1448C15.4948 28.1448 15.5019 28.1378 15.5019 28.1237C15.5019 28.1025 15.4843 28.0637 15.449 28.0072L15.4278 27.9543C15.4278 27.9401 15.4313 27.9331 15.4384 27.9331C15.4666 27.9331 15.5407 27.9825 15.6607 28.0813C15.8584 28.2649 15.9607 28.3849 15.9678 28.4413C15.9749 28.4978 15.9784 28.5296 15.9784 28.5366C15.9784 28.5649 15.9678 28.579 15.9466 28.579C15.9113 28.579 15.8372 28.5366 15.7243 28.4519C15.6184 28.3672 15.5548 28.3249 15.5337 28.3249C15.5337 28.346 15.576 28.406 15.6607 28.5049C15.7737 28.6602 15.8831 28.7378 15.989 28.7378H16.0208C16.1196 28.7378 16.2925 28.9567 16.5396 29.3943C16.6878 29.6696 16.762 29.8179 16.762 29.839C16.7549 29.839 16.7408 29.8249 16.7196 29.7967C16.4161 29.3661 16.2466 29.1508 16.2113 29.1508C16.2043 29.1508 16.2008 29.1578 16.2008 29.172C16.2008 29.2143 16.2714 29.3731 16.4125 29.6484C16.6384 30.0791 16.7973 30.2944 16.889 30.2944C16.9031 30.2944 16.9137 30.2873 16.9208 30.2732C16.9349 30.252 16.9526 30.2414 16.9737 30.2414C17.0161 30.2414 17.0584 30.3085 17.1008 30.4426C17.1149 30.5132 17.122 30.5661 17.122 30.6014C17.122 30.6579 17.1079 30.6861 17.0796 30.6861C17.0584 30.6861 17.0337 30.6791 17.0055 30.665C16.9843 30.6438 16.9631 30.6332 16.942 30.6332C16.9208 30.6332 16.9102 30.6473 16.9102 30.6756C16.9102 30.7038 16.9208 30.7532 16.942 30.8238C16.9702 30.8873 17.0196 31.0532 17.0902 31.3215C17.1608 31.5897 17.2349 31.8897 17.3126 32.2215C17.4538 32.8498 17.5596 33.1639 17.6302 33.1639ZM17.4396 31.6391C17.3973 31.6391 17.3479 31.5721 17.2914 31.4379C17.242 31.2968 17.2173 31.1556 17.2173 31.0144C17.2173 30.9862 17.2243 30.972 17.2385 30.972C17.2667 30.9791 17.3126 31.0567 17.3761 31.205C17.4396 31.3956 17.4714 31.5191 17.4714 31.5756C17.4714 31.618 17.4608 31.6391 17.4396 31.6391ZM25.9636 14.4219C25.9283 14.4219 25.9106 14.3513 25.9106 14.2101C25.9177 14.0971 25.9318 14.0407 25.953 14.0407C25.9671 14.0407 25.9812 14.0654 25.9953 14.1148C26.0165 14.1571 26.0271 14.1995 26.0271 14.2418C26.0271 14.3618 26.0059 14.4219 25.9636 14.4219ZM32.2215 21.3151C32.285 21.3151 32.338 21.301 32.3803 21.2728C32.4298 21.2375 32.4545 21.2022 32.4545 21.1669C32.4545 21.1104 32.4192 21.0822 32.3486 21.0822C32.3133 21.0822 32.2674 21.0928 32.2109 21.1139C32.1544 21.128 32.105 21.1528 32.0627 21.1881C32.0203 21.2163 31.9991 21.2375 31.9991 21.2516C31.9991 21.2939 32.0733 21.3151 32.2215 21.3151ZM33.4286 20.9975C33.5769 20.9975 33.651 20.9798 33.651 20.9445C33.651 20.8951 33.6051 20.8704 33.5133 20.8704C33.4569 20.8704 33.4004 20.881 33.3439 20.9022C33.2945 20.9233 33.2698 20.941 33.2698 20.9551C33.2698 20.9763 33.3227 20.9904 33.4286 20.9975ZM31.2685 20.8069C31.3674 20.8069 31.9286 20.5033 32.9521 19.8962C33.6016 19.515 33.9263 19.2962 33.9263 19.2397C33.9263 19.2327 33.9228 19.2291 33.9157 19.2291C33.831 19.2291 33.3792 19.4656 32.5603 19.9386C31.678 20.4539 31.2368 20.7363 31.2368 20.7857C31.2368 20.7998 31.2473 20.8069 31.2685 20.8069ZM35.6099 20.5315C35.8923 20.5033 36.4464 20.401 37.2723 20.2245L38.4689 19.9809C40.1066 19.635 40.9254 19.4303 40.9254 19.3668C40.9254 19.3597 40.9219 19.3562 40.9149 19.3562C40.6748 19.3562 39.7536 19.5186 38.1512 19.8433C36.3864 20.2104 35.504 20.4327 35.504 20.5104C35.504 20.5245 35.5217 20.5315 35.557 20.5315H35.6099ZM42.429 19.1656C42.5702 19.1656 42.6408 19.148 42.6408 19.1127C42.6408 19.0703 42.5949 19.0456 42.5032 19.0385C42.4467 19.0385 42.3902 19.0491 42.3337 19.0703C42.2843 19.0915 42.2596 19.1091 42.2596 19.1232C42.2596 19.1444 42.3161 19.1585 42.429 19.1656ZM34.3181 18.9856C34.3675 18.9856 34.5087 18.9185 34.7416 18.7844C35.1016 18.5868 35.2817 18.4562 35.2817 18.3926C35.2817 18.3856 35.2781 18.382 35.2711 18.382C35.2075 18.382 35.0593 18.4491 34.8263 18.5832C34.4663 18.795 34.2863 18.9221 34.2863 18.9644C34.2863 18.9785 34.2969 18.9856 34.3181 18.9856ZM43.2656 19.0068C43.3573 19.0068 43.4032 18.9891 43.4032 18.9538C43.4032 18.9115 43.3573 18.8903 43.2656 18.8903C43.2091 18.8903 43.1526 18.9009 43.0961 18.9221C43.0467 18.9432 43.022 18.9609 43.022 18.975C43.022 18.9962 43.1032 19.0068 43.2656 19.0068Z" fill="#FFE500"/>
<path d="M13.6726 38.732H18.7805C19.1008 38.732 19.3735 38.7465 19.5986 38.7753C19.8266 38.8013 20.03 38.8504 20.2089 38.9225C20.3907 38.9918 20.5365 39.0812 20.6461 39.1909C20.7558 39.3005 20.8467 39.4448 20.9189 39.6238C20.9939 39.8027 21.0444 40.0061 21.0704 40.2341C21.0992 40.4592 21.1136 40.7319 21.1136 41.0522C21.1136 41.361 21.1007 41.6251 21.0747 41.8444C21.0487 42.0637 21.0025 42.2628 20.9362 42.4418C20.8698 42.6178 20.7847 42.7621 20.6808 42.8746C20.5798 42.9843 20.4456 43.0795 20.2782 43.1603C20.1137 43.2382 19.9247 43.2974 19.7111 43.3378C19.5005 43.3753 19.2465 43.4027 18.9493 43.4201H15.6248V45.645H13.6726V38.732ZM15.6248 41.7448H18.0099C18.2004 41.7448 18.3505 41.7434 18.4601 41.7405C18.5727 41.7347 18.6766 41.7232 18.7718 41.7059C18.867 41.6857 18.9363 41.6626 18.9796 41.6366C19.0229 41.6106 19.0604 41.5688 19.0921 41.5111C19.1239 41.4534 19.1426 41.3928 19.1484 41.3293C19.1571 41.2629 19.1614 41.1734 19.1614 41.0609C19.1614 40.9685 19.1585 40.8921 19.1527 40.8315C19.1498 40.7709 19.1412 40.7117 19.1268 40.654C19.1123 40.5963 19.095 40.5515 19.0748 40.5198C19.0546 40.4852 19.0214 40.4534 18.9753 40.4246C18.932 40.3957 18.8843 40.3741 18.8324 40.3596C18.7833 40.3452 18.7155 40.3337 18.629 40.325C18.5453 40.3135 18.4558 40.3062 18.3606 40.3034C18.2682 40.3005 18.1513 40.299 18.0099 40.299H15.6248V41.7448ZM24.5444 44.065V45.645H22.9558C22.6585 45.645 22.4205 45.6248 22.2415 45.5844C22.0655 45.5411 21.9212 45.4618 21.8087 45.3463C21.6961 45.228 21.6196 45.078 21.5792 44.8961C21.5417 44.7115 21.5244 44.4676 21.5273 44.1646V38.5546H23.2934V43.6235C23.2934 43.6985 23.2963 43.7562 23.3021 43.7967C23.3079 43.8371 23.3266 43.876 23.3584 43.9135C23.3901 43.951 23.4291 43.9785 23.4752 43.9958C23.5214 44.0102 23.5964 44.0246 23.7003 44.0391C23.8042 44.0506 23.9182 44.0578 24.0423 44.0607C24.1664 44.0636 24.3338 44.065 24.5444 44.065ZM28.2739 40.2211C28.7731 40.2211 29.1873 40.2384 29.5162 40.2731C29.8481 40.3077 30.1352 40.3654 30.3777 40.4462C30.6201 40.5241 30.8062 40.6367 30.9361 40.7839C31.0659 40.9281 31.1597 41.1013 31.2174 41.3033C31.2751 41.5024 31.304 41.7535 31.304 42.0565V45.645H29.5422V44.7663C29.3056 45.4156 28.5957 45.7446 27.4125 45.7532C27.0748 45.7619 26.7848 45.759 26.5424 45.7446C26.3029 45.7302 26.0879 45.6984 25.8974 45.6493C25.7098 45.6032 25.5569 45.5411 25.4386 45.4632C25.3231 45.3853 25.2265 45.2828 25.1485 45.1559C25.0735 45.026 25.0216 44.8788 24.9927 44.7143C24.9639 44.547 24.9494 44.3464 24.9494 44.1126C24.9494 43.8876 24.961 43.6956 24.9841 43.5369C25.01 43.3753 25.0533 43.2325 25.1139 43.1084C25.1774 42.9814 25.2568 42.879 25.352 42.801C25.4472 42.7231 25.5713 42.6596 25.7243 42.6106C25.8801 42.5586 26.0547 42.5226 26.248 42.5024C26.4414 42.4822 26.6737 42.4721 26.945 42.4721L29.5422 42.4634V42.1431C29.5422 42.0392 29.5379 41.9569 29.5292 41.8963C29.5206 41.8328 29.4975 41.7751 29.46 41.7232C29.4253 41.6712 29.3835 41.6337 29.3344 41.6106C29.2854 41.5847 29.2075 41.563 29.1007 41.5457C28.9939 41.5284 28.8785 41.5183 28.7544 41.5154C28.6303 41.5096 28.4644 41.5068 28.2566 41.5068C28.0344 41.5068 27.8569 41.5096 27.7241 41.5154C27.5914 41.5183 27.4673 41.5298 27.3519 41.55C27.2393 41.5674 27.1556 41.589 27.1008 41.615C27.0489 41.6381 27.0041 41.677 26.9666 41.7318C26.9291 41.7838 26.906 41.8415 26.8974 41.905C26.8887 41.9656 26.8858 42.0478 26.8887 42.1517H25.1269V41.9656C25.1269 41.7261 25.1457 41.5212 25.1832 41.3509C25.2207 41.1778 25.2885 41.0248 25.3866 40.8921C25.4847 40.7564 25.6074 40.6482 25.7546 40.5674C25.9046 40.4837 26.1009 40.4159 26.3433 40.364C26.5857 40.3091 26.8598 40.2716 27.1657 40.2514C27.4716 40.2312 27.841 40.2211 28.2739 40.2211ZM26.8108 44.13C26.8108 44.306 26.8887 44.4142 27.0445 44.4546C27.2004 44.4921 27.6102 44.508 28.2739 44.5022C28.7154 44.4965 29.0372 44.4517 29.2392 44.368C29.4412 44.2815 29.5422 44.1429 29.5422 43.9525V43.7577L28.2739 43.7663C28.0373 43.7635 27.8482 43.7635 27.7068 43.7663C27.5654 43.7663 27.4341 43.7721 27.3129 43.7837C27.1917 43.7923 27.1022 43.8039 27.0445 43.8183C26.9897 43.8327 26.9421 43.8558 26.9017 43.8876C26.8613 43.9164 26.8353 43.9496 26.8238 43.9871C26.8151 44.0217 26.8108 44.0694 26.8108 44.13ZM35.83 46.0606C35.7492 46.2828 35.6655 46.4689 35.5789 46.619C35.4952 46.769 35.3985 46.8975 35.2889 47.0042C35.1792 47.1139 35.0465 47.1976 34.8906 47.2553C34.7377 47.313 34.5645 47.3549 34.3712 47.3808C34.1807 47.4068 33.9484 47.4198 33.6742 47.4198H31.8129V45.9394H33.4535C33.7969 45.9394 34.0148 45.9192 34.1071 45.8788C34.2023 45.8413 34.2687 45.7403 34.3062 45.5758L34.3322 45.4675H33.276L31.2285 40.325H33.1158L34.6266 44.2165H34.6785L36.133 40.325H37.9034L35.83 46.0606ZM42.7305 45.645V40.3986H40.1073V38.732H47.3319V40.3986H44.6827V45.645H42.7305ZM47.5464 40.325H49.3126V41.2903C49.3876 40.9527 49.542 40.7074 49.7757 40.5544C50.0095 40.4015 50.3428 40.325 50.7757 40.325H51.9098V41.8963H50.174C49.871 41.8963 49.6517 41.9555 49.516 42.0738C49.3804 42.1921 49.3126 42.384 49.3126 42.6495V45.645H47.5464V40.325ZM52.146 40.325H53.9121V45.645H52.146V40.325ZM52.1114 39.8315V38.5546H53.9554V39.8315H52.1114ZM60.9314 40.325L58.6891 45.645H56.1871L54.105 40.325H55.9837L57.4728 44.3594H57.529L59.1307 40.325H60.9314ZM61.1286 40.325H62.8948V45.645H61.1286V40.325ZM61.094 39.8315V38.5546H62.938V39.8315H61.094ZM66.7151 40.2211C67.2144 40.2211 67.6285 40.2384 67.9575 40.2731C68.2893 40.3077 68.5765 40.3654 68.8189 40.4462C69.0613 40.5241 69.2474 40.6367 69.3773 40.7839C69.5072 40.9281 69.6009 41.1013 69.6587 41.3033C69.7164 41.5024 69.7452 41.7535 69.7452 42.0565V45.645H67.9834V44.7663C67.7468 45.4156 67.0369 45.7446 65.8537 45.7532C65.5161 45.7619 65.226 45.759 64.9836 45.7446C64.7441 45.7302 64.5291 45.6984 64.3386 45.6493C64.1511 45.6032 63.9981 45.5411 63.8798 45.4632C63.7644 45.3853 63.6677 45.2828 63.5898 45.1559C63.5147 45.026 63.4628 44.8788 63.4339 44.7143C63.4051 44.547 63.3907 44.3464 63.3907 44.1126C63.3907 43.8876 63.4022 43.6956 63.4253 43.5369C63.4513 43.3753 63.4945 43.2325 63.5551 43.1084C63.6186 42.9814 63.698 42.879 63.7932 42.801C63.8885 42.7231 64.0125 42.6596 64.1655 42.6106C64.3213 42.5586 64.4959 42.5226 64.6893 42.5024C64.8826 42.4822 65.1149 42.4721 65.3862 42.4721L67.9834 42.4634V42.1431C67.9834 42.0392 67.9791 41.9569 67.9705 41.8963C67.9618 41.8328 67.9387 41.7751 67.9012 41.7232C67.8666 41.6712 67.8247 41.6337 67.7757 41.6106C67.7266 41.5847 67.6487 41.563 67.5419 41.5457C67.4351 41.5284 67.3197 41.5183 67.1956 41.5154C67.0715 41.5096 66.9056 41.5068 66.6978 41.5068C66.4756 41.5068 66.2981 41.5096 66.1654 41.5154C66.0326 41.5183 65.9085 41.5298 65.7931 41.55C65.6806 41.5674 65.5969 41.589 65.542 41.615C65.4901 41.6381 65.4454 41.677 65.4078 41.7318C65.3703 41.7838 65.3472 41.8415 65.3386 41.905C65.3299 41.9656 65.327 42.0478 65.3299 42.1517H63.5681V41.9656C63.5681 41.7261 63.5869 41.5212 63.6244 41.3509C63.6619 41.1778 63.7297 41.0248 63.8279 40.8921C63.926 40.7564 64.0486 40.6482 64.1958 40.5674C64.3459 40.4837 64.5421 40.4159 64.7845 40.364C65.0269 40.3091 65.3011 40.2716 65.607 40.2514C65.9129 40.2312 66.2822 40.2211 66.7151 40.2211ZM65.252 44.13C65.252 44.306 65.3299 44.4142 65.4858 44.4546C65.6416 44.4921 66.0514 44.508 66.7151 44.5022C67.1566 44.4965 67.4784 44.4517 67.6804 44.368C67.8824 44.2815 67.9834 44.1429 67.9834 43.9525V43.7577L66.7151 43.7663C66.4785 43.7635 66.2895 43.7635 66.1481 43.7663C66.0066 43.7663 65.8753 43.7721 65.7541 43.7837C65.6329 43.7923 65.5435 43.8039 65.4858 43.8183C65.4309 43.8327 65.3833 43.8558 65.3429 43.8876C65.3025 43.9164 65.2765 43.9496 65.265 43.9871C65.2563 44.0217 65.252 44.0694 65.252 44.13ZM70.2411 43.8876H72.3622V45.0433C72.3622 45.3377 72.3406 45.5758 72.2973 45.7576C72.254 45.9423 72.1732 46.0909 72.0549 46.2034C71.9394 46.3189 71.7908 46.3982 71.609 46.4415C71.4301 46.4848 71.1935 46.5064 70.8991 46.5064H70.2498V45.9913C70.599 45.9913 70.8515 45.9841 71.0073 45.9697C71.166 45.9552 71.2844 45.9235 71.3623 45.8744C71.4431 45.8283 71.4921 45.7518 71.5095 45.645H70.2411V43.8876ZM82.4747 38.732L83.6088 44.0131H83.691L84.8858 38.732H86.7991L85.1498 45.645H82.0028L80.8773 40.377H80.8081L79.8038 45.645H76.6222L74.9556 38.732H76.9598L78.1849 44.0131H78.2541L79.2584 38.732H82.4747ZM86.9054 40.325H88.6715V45.645H86.9054V40.325ZM86.8707 39.8315V38.5546H88.7148V39.8315H86.8707ZM89.2626 40.325H91.0287V41.2384C91.1269 40.8863 91.3462 40.6295 91.6867 40.4679C92.0272 40.3034 92.5135 40.2211 93.1455 40.2211C93.4601 40.2211 93.7284 40.2327 93.9506 40.2557C94.1757 40.2788 94.3763 40.3221 94.5523 40.3856C94.7284 40.4462 94.8698 40.5227 94.9766 40.615C95.0862 40.7074 95.1757 40.83 95.2449 40.983C95.3171 41.133 95.3661 41.3047 95.3921 41.4981C95.421 41.6886 95.4354 41.918 95.4354 42.1864L95.4441 45.645H93.6779V42.6322C93.6779 42.4793 93.6736 42.3581 93.6649 42.2686C93.6592 42.1791 93.639 42.0955 93.6043 42.0175C93.5697 41.9396 93.5293 41.8834 93.4831 41.8487C93.437 41.8141 93.3619 41.7838 93.258 41.7578C93.157 41.7318 93.0474 41.716 92.9291 41.7102C92.8107 41.7044 92.6506 41.7015 92.4486 41.7015C91.9551 41.7015 91.5958 41.7766 91.3707 41.9266C91.1485 42.0738 91.0374 42.3119 91.0374 42.6409L91.0287 45.645H89.2626V40.325ZM106.366 42.7101C106.369 43.1286 106.347 43.4864 106.301 43.7837C106.255 44.078 106.168 44.3421 106.041 44.5758C105.917 44.8096 105.759 44.9986 105.565 45.1429C105.372 45.2872 105.116 45.4069 104.799 45.5022C104.484 45.5974 104.125 45.6623 103.721 45.697C103.32 45.7345 102.837 45.7532 102.271 45.7532C101.705 45.7532 101.222 45.7316 100.821 45.6883C100.42 45.645 100.06 45.5685 99.743 45.4589C99.4256 45.3492 99.1687 45.2107 98.9725 45.0433C98.7791 44.8731 98.619 44.6509 98.492 44.3767C98.365 44.1025 98.277 43.7923 98.2279 43.446C98.1789 43.0968 98.1544 42.677 98.1544 42.1864C98.1544 41.6958 98.1789 41.2773 98.2279 40.931C98.277 40.5818 98.365 40.2702 98.492 39.996C98.619 39.7219 98.7791 39.5011 98.9725 39.3337C99.1687 39.1663 99.4256 39.0278 99.743 38.9182C100.06 38.8056 100.42 38.7291 100.821 38.6887C101.222 38.6455 101.705 38.6238 102.271 38.6238C102.839 38.6238 103.323 38.6426 103.721 38.6801C104.122 38.7147 104.482 38.7796 104.799 38.8749C105.116 38.9672 105.372 39.0841 105.565 39.2255C105.759 39.3669 105.917 39.5545 106.041 39.7882C106.168 40.022 106.255 40.286 106.301 40.5804C106.347 40.8748 106.369 41.2297 106.366 41.6453H104.318C104.321 41.4692 104.32 41.3235 104.314 41.2081C104.308 41.0897 104.293 40.9772 104.267 40.8704C104.241 40.7608 104.209 40.6742 104.171 40.6107C104.134 40.5472 104.076 40.4881 103.998 40.4332C103.92 40.3755 103.835 40.3337 103.743 40.3077C103.653 40.2788 103.531 40.2557 103.375 40.2384C103.222 40.2182 103.062 40.2052 102.894 40.1995C102.727 40.1937 102.519 40.1908 102.271 40.1908C102.02 40.1908 101.811 40.1951 101.643 40.2038C101.479 40.2096 101.319 40.2269 101.163 40.2557C101.01 40.2817 100.887 40.3135 100.795 40.351C100.705 40.3856 100.62 40.4419 100.539 40.5198C100.462 40.5948 100.402 40.6771 100.362 40.7665C100.324 40.8531 100.291 40.9714 100.262 41.1215C100.236 41.2687 100.219 41.4231 100.211 41.5847C100.205 41.7434 100.202 41.944 100.202 42.1864C100.202 42.4288 100.205 42.6308 100.211 42.7924C100.219 42.9511 100.236 43.1055 100.262 43.2556C100.291 43.4027 100.324 43.5211 100.362 43.6105C100.402 43.6971 100.462 43.7793 100.539 43.8573C100.62 43.9323 100.705 43.9886 100.795 44.0261C100.887 44.0607 101.01 44.0924 101.163 44.1213C101.319 44.1473 101.479 44.1646 101.643 44.1733C101.811 44.179 102.02 44.1819 102.271 44.1819C102.522 44.1819 102.73 44.179 102.894 44.1733C103.062 44.1675 103.222 44.1545 103.375 44.1343C103.531 44.1141 103.653 44.091 103.743 44.065C103.835 44.0391 103.92 43.9972 103.998 43.9395C104.076 43.8818 104.134 43.8212 104.171 43.7577C104.209 43.6942 104.241 43.6076 104.267 43.498C104.293 43.3854 104.308 43.2714 104.314 43.156C104.32 43.0377 104.321 42.8891 104.318 42.7101H106.366ZM106.784 40.325H108.55V41.2903C108.625 40.9527 108.78 40.7074 109.013 40.5544C109.247 40.4015 109.58 40.325 110.013 40.325H111.147V41.8963H109.411C109.108 41.8963 108.889 41.9555 108.754 42.0738C108.618 42.1921 108.55 42.384 108.55 42.6495V45.645H106.784V40.325ZM115.682 46.0606C115.601 46.2828 115.517 46.4689 115.431 46.619C115.347 46.769 115.25 46.8975 115.141 47.0042C115.031 47.1139 114.898 47.1976 114.743 47.2553C114.59 47.313 114.416 47.3549 114.223 47.3808C114.033 47.4068 113.8 47.4198 113.526 47.4198H111.665V45.9394H113.305C113.649 45.9394 113.867 45.9192 113.959 45.8788C114.054 45.8413 114.121 45.7403 114.158 45.5758L114.184 45.4675H113.128L111.08 40.325H112.968L114.479 44.2165H114.53L115.985 40.325H117.755L115.682 46.0606ZM117.957 47.4198V40.325H119.68V41.3985C119.763 40.9916 119.98 40.6944 120.329 40.5068C120.681 40.3163 121.188 40.2211 121.848 40.2211C122.163 40.2211 122.431 40.2384 122.654 40.2731C122.876 40.3048 123.075 40.364 123.251 40.4505C123.43 40.5342 123.573 40.641 123.68 40.7709C123.789 40.9007 123.879 41.0724 123.948 41.286C124.02 41.4995 124.069 41.7419 124.095 42.0132C124.124 42.2816 124.138 42.6062 124.138 42.9872C124.138 43.3681 124.125 43.6942 124.099 43.9655C124.073 44.2339 124.026 44.4748 123.957 44.6884C123.887 44.9019 123.801 45.0736 123.697 45.2035C123.593 45.3334 123.456 45.4416 123.286 45.5281C123.118 45.6118 122.928 45.6695 122.714 45.7013C122.504 45.7359 122.248 45.7532 121.948 45.7532C121.267 45.7532 120.748 45.6623 120.39 45.4805C120.035 45.2958 119.813 45.0044 119.723 44.6061V47.4198H117.957ZM119.723 43.7577C119.723 43.9395 119.83 44.0708 120.043 44.1516C120.26 44.2324 120.608 44.2728 121.087 44.2728C121.28 44.2728 121.434 44.2685 121.55 44.2598C121.665 44.2512 121.772 44.2295 121.87 44.1949C121.968 44.1603 122.04 44.1184 122.087 44.0694C122.133 44.0174 122.172 43.9395 122.203 43.8356C122.238 43.7288 122.258 43.6134 122.264 43.4893C122.273 43.3652 122.277 43.1978 122.277 42.9872C122.277 42.7794 122.273 42.6135 122.264 42.4894C122.258 42.3624 122.239 42.247 122.208 42.1431C122.179 42.0363 122.143 41.9584 122.1 41.9093C122.059 41.8574 121.994 41.8141 121.905 41.7795C121.815 41.7448 121.719 41.7232 121.615 41.7145C121.511 41.7059 121.371 41.7015 121.195 41.7015C120.678 41.7015 120.303 41.7795 120.069 41.9353C119.838 42.0911 119.723 42.3436 119.723 42.6928V43.7577ZM128.915 44.065V45.645H127.331C126.881 45.645 126.52 45.6205 126.249 45.5714C125.98 45.5195 125.76 45.4214 125.587 45.2771C125.416 45.1328 125.301 44.9481 125.24 44.723C125.18 44.495 125.149 44.1906 125.149 43.8096V41.8054H124.548V40.325H125.24V39.1909H126.907V40.325H128.829V41.8054H126.907V43.3508C126.907 43.4691 126.908 43.5629 126.911 43.6322C126.917 43.7014 126.927 43.7663 126.941 43.827C126.959 43.8847 126.979 43.928 127.002 43.9568C127.025 43.9828 127.061 44.0059 127.11 44.0261C127.162 44.0434 127.217 44.0549 127.275 44.0607C127.333 44.0636 127.41 44.065 127.509 44.065H128.915ZM132.368 41.602C132.186 41.602 132.034 41.6049 131.913 41.6106C131.795 41.6135 131.68 41.6251 131.567 41.6453C131.457 41.6626 131.369 41.6842 131.303 41.7102C131.239 41.7333 131.179 41.7722 131.121 41.8271C131.063 41.8819 131.02 41.9396 130.991 42.0002C130.965 42.0579 130.942 42.1387 130.922 42.2426C130.902 42.3465 130.889 42.4547 130.883 42.5673C130.88 42.6798 130.879 42.8198 130.879 42.9872C130.879 43.2123 130.883 43.3926 130.892 43.5283C130.9 43.661 130.925 43.7851 130.965 43.9005C131.009 44.0131 131.058 44.0968 131.112 44.1516C131.17 44.2036 131.261 44.2483 131.385 44.2858C131.509 44.3233 131.643 44.3464 131.788 44.3551C131.932 44.3637 132.125 44.368 132.368 44.368C132.61 44.368 132.802 44.3637 132.944 44.3551C133.088 44.3464 133.222 44.3233 133.346 44.2858C133.47 44.2483 133.56 44.2036 133.614 44.1516C133.672 44.0968 133.721 44.0131 133.762 43.9005C133.805 43.7851 133.831 43.661 133.84 43.5283C133.851 43.3926 133.857 43.2123 133.857 42.9872C133.857 42.7621 133.851 42.5832 133.84 42.4504C133.831 42.3148 133.805 42.1907 133.762 42.0781C133.721 41.9627 133.672 41.879 133.614 41.8271C133.56 41.7722 133.47 41.7261 133.346 41.6886C133.222 41.6482 133.088 41.6236 132.944 41.615C132.802 41.6063 132.61 41.602 132.368 41.602ZM129.078 43.9655C129.038 43.6942 129.017 43.3681 129.017 42.9872C129.017 42.6062 129.038 42.2816 129.078 42.0132C129.118 41.7419 129.191 41.4995 129.294 41.286C129.398 41.0724 129.53 40.9007 129.688 40.7709C129.847 40.641 130.055 40.5342 130.312 40.4505C130.571 40.364 130.864 40.3048 131.19 40.2731C131.516 40.2384 131.909 40.2211 132.368 40.2211C132.827 40.2211 133.218 40.2384 133.541 40.2731C133.867 40.3048 134.158 40.364 134.415 40.4505C134.675 40.5342 134.883 40.641 135.039 40.7709C135.197 40.9007 135.329 41.0724 135.433 41.286C135.536 41.4995 135.609 41.7419 135.649 42.0132C135.689 42.2816 135.71 42.6062 135.71 42.9872C135.71 43.3681 135.689 43.6942 135.649 43.9655C135.609 44.2339 135.536 44.4748 135.433 44.6884C135.329 44.9019 135.197 45.0736 135.039 45.2035C134.883 45.3334 134.675 45.4416 134.415 45.5281C134.158 45.6118 133.867 45.6695 133.541 45.7013C133.218 45.7359 132.827 45.7532 132.368 45.7532C131.909 45.7532 131.516 45.7359 131.19 45.7013C130.864 45.6695 130.571 45.6118 130.312 45.5281C130.055 45.4416 129.847 45.3334 129.688 45.2035C129.53 45.0736 129.398 44.9019 129.294 44.6884C129.191 44.4748 129.118 44.2339 129.078 43.9655Z" fill="white"/>
</svg>
